<?xml version="1.0" encoding="UTF-8" standalone="no"?>
<!-- Generator: Adobe Illustrator 18.0.0, SVG Export Plug-In . SVG Version: 6.00 Build 0)  -->

<svg
   xmlns:dc="http://purl.org/dc/elements/1.1/"
   xmlns:cc="http://creativecommons.org/ns#"
   xmlns:rdf="http://www.w3.org/1999/02/22-rdf-syntax-ns#"
   xmlns:svg="http://www.w3.org/2000/svg"
   xmlns="http://www.w3.org/2000/svg"
   xmlns:sodipodi="http://sodipodi.sourceforge.net/DTD/sodipodi-0.dtd"
   xmlns:inkscape="http://www.inkscape.org/namespaces/inkscape"
   version="1.1"
   id="Capa_1"
   x="0px"
   y="0px"
   viewBox="0 0 833.19335 832.94577"
   enable-background="new 0 0 417.6 597.6"
   xml:space="preserve"
   sodipodi:docname="all departments-01.svg"
   inkscape:version="0.92.4 (5da689c313, 2019-01-14)"
   width="833.19336"
   height="832.94574"><metadata
   id="metadata19"><rdf:RDF><cc:Work
       rdf:about=""><dc:format>image/svg+xml</dc:format><dc:type
         rdf:resource="http://purl.org/dc/dcmitype/StillImage" /><dc:title></dc:title></cc:Work></rdf:RDF></metadata><defs
   id="defs17">
	

		
	</defs><sodipodi:namedview
   pagecolor="#ffffff"
   bordercolor="#666666"
   borderopacity="1"
   objecttolerance="10"
   gridtolerance="10"
   guidetolerance="10"
   inkscape:pageopacity="0"
   inkscape:pageshadow="2"
   inkscape:window-width="1920"
   inkscape:window-height="1001"
   id="namedview15"
   showgrid="false"
   inkscape:zoom="0.55849132"
   inkscape:cx="885.41328"
   inkscape:cy="453.89085"
   inkscape:window-x="-9"
   inkscape:window-y="-9"
   inkscape:window-maximized="1"
   inkscape:current-layer="g5844"
   showborder="false"
   fit-margin-top="0"
   fit-margin-left="0"
   fit-margin-right="0"
   fit-margin-bottom="0" />
<g
   id="g6"
   transform="translate(976.21363,-588.75014)">
	<g
   id="g4">
		
	</g>
</g>

<ellipse
   style="opacity:0.1;fill:#800080;fill-opacity:0"
   id="path5803"
   cx="1649.7798"
   cy="773.5752"
   rx="243.09152"
   ry="2.5322032" /><g
   id="g5844"
   transform="translate(819.21702,-56.987446)"><g
     id="g5874"
     inkscape:export-xdpi="50"
     inkscape:export-ydpi="50"><g
       id="g5859"><g
         transform="translate(-597.59998,177.25423)"
         style="fill:#800080"
         id="g5760"><path
           inkscape:connector-curvature="0"
           style="fill:#800080"
           d="m 208.8,188.7 c -60.7,0 -110.1,49.4 -110.1,110.1 0,60.8 49.5,110.1 110.1,110.1 60.7,0 110.1,-49.4 110.1,-110.1 0,-60.7 -49.4,-110.1 -110.1,-110.1 z m 0,195.7 c -20,0 -38.4,-6.9 -53,-18.4 10.8,-18.8 30.8,-30.5 53,-30.5 22.2,0 42.1,11.8 53,30.5 -14.6,11.6 -33,18.4 -53,18.4 z m -24.5,-97.8 c 0,-13.5 11,-24.5 24.5,-24.5 13.5,0 24.5,11 24.5,24.5 0,13.5 -11,24.5 -24.5,24.5 -13.5,0 -24.5,-11 -24.5,-24.5 z m 94.8,61.1 c -8.6,-12.4 -20.3,-22.2 -33.8,-28.5 7.7,-8.7 12.5,-20.1 12.5,-32.6 0,-27 -22,-48.9 -48.9,-48.9 -26.9,0 -48.9,22 -48.9,48.9 0,12.5 4.7,23.9 12.5,32.6 -13.5,6.3 -25.2,16.1 -33.8,28.5 -9.7,-13.9 -15.4,-30.7 -15.4,-48.9 0,-47.2 38.4,-85.6 85.6,-85.6 47.2,0 85.6,38.4 85.6,85.6 -0.1,18.2 -5.7,35 -15.4,48.9 z"
           id="path2" /><path
           style="fill:#800080"
           inkscape:connector-curvature="0"
           d="M 407.3,262.3 374.8,257 c -4.1,-16.2 -10.5,-31.6 -19.1,-46 l 18.7,-26.2 c 3.5,-4.9 2.9,-11.5 -1.3,-15.8 l -34.6,-34.6 c -4.2,-4.2 -10.9,-4.8 -15.8,-1.3 l -26.2,18.7 c -14.4,-8.6 -29.8,-15 -46,-19.1 l -5.3,-32.5 c -1,-5.9 -6.1,-10.3 -12.1,-10.3 h -48.9 c -6,0 -11.1,4.3 -12.1,10.3 l -5.3,32.5 c -16.2,4.1 -31.6,10.5 -46,19.1 L 94.6,133.1 c -4.9,-3.5 -11.5,-2.9 -15.8,1.3 L 44.4,169 c -4.2,4.2 -4.8,10.9 -1.3,15.8 L 61.8,211 c -8.6,14.4 -15,29.8 -19.1,46 l -32.5,5.3 c -5.9,1 -10.3,6.1 -10.3,12.1 v 48.9 c 0,6 4.3,11.1 10.3,12.1 l 32.5,5.3 c 4.1,16.2 10.5,31.6 19.1,46 l -18.7,26.2 c -3.5,4.9 -2.9,11.5 1.3,15.8 L 79,463.2 c 4.2,4.2 10.9,4.8 15.8,1.3 L 121,445.8 c 14.4,8.6 29.8,15 46,19.1 l 5.3,32.5 c 1,5.9 6.1,10.3 12.1,10.3 h 48.9 c 6,0 11.1,-4.3 12.1,-10.3 l 5.3,-32.5 c 16.2,-4.1 31.6,-10.5 46,-19.1 l 26.2,18.7 c 4.9,3.5 11.5,2.9 15.8,-1.3 l 34.6,-34.6 c 4.2,-4.2 4.8,-10.9 1.3,-15.8 l -18.7,-26.2 c 8.6,-14.4 15,-29.8 19.1,-46 l 32.5,-5.3 c 5.9,-1 10.3,-6.1 10.3,-12.1 v -48.9 c -0.2,-6 -4.5,-11.1 -10.5,-12 z m -14.2,50.6 -30.4,5 c -5,0.8 -9,4.7 -10,9.7 -3.8,18.9 -11.1,36.6 -21.9,52.7 -2.8,4.2 -2.7,9.8 0.2,13.9 l 17.5,24.4 -19.9,19.9 -24.4,-17.5 c -4.1,-3 -9.7,-3 -13.9,-0.2 -16.1,10.8 -33.8,18.1 -52.7,21.9 -5,1 -8.9,5 -9.7,10 l -5,30.4 h -28.1 l -5,-30.4 c -0.8,-5 -4.7,-9 -9.7,-10 -18.9,-3.8 -36.6,-11.1 -52.7,-21.9 -4.2,-2.8 -9.8,-2.7 -13.9,0.2 L 89,438.5 69.1,418.6 86.6,394.2 c 3,-4.1 3,-9.7 0.2,-13.9 C 76,364.2 68.7,346.5 64.9,327.6 c -1,-5 -5,-8.9 -10,-9.7 l -30.4,-5 v -28.1 l 30.4,-5 c 5,-0.8 9,-4.7 10,-9.7 3.8,-18.9 11.1,-36.6 21.9,-52.7 2.8,-4.2 2.7,-9.8 -0.2,-13.9 L 69.1,179 89,159.1 l 24.4,17.5 c 4.1,3 9.7,3 13.9,0.2 16.1,-10.8 33.8,-18.1 52.7,-21.9 5,-1 8.9,-5 9.7,-10 l 5,-30.4 h 28.1 l 5,30.4 c 0.8,5 4.7,9 9.7,10 18.9,3.8 36.6,11.1 52.7,21.9 4.2,2.8 9.8,2.7 13.9,-0.2 l 24.4,-17.5 19.9,19.9 -17.5,24.4 c -3,4.1 -3,9.7 -0.2,13.9 10.8,16.1 18.1,33.8 21.9,52.7 1,5 5,8.9 10,9.7 l 30.4,5 v 28.2 z"
           id="path8" /></g></g><g
       id="g5851"><g
         id="g5847"><ellipse
           style="opacity:0.1;fill:#800080;fill-opacity:1;stroke:#000000;stroke-width:2.00136614;stroke-opacity:1"
           id="path5812"
           cx="-402.62033"
           cy="473.46033"
           rx="415.59601"
           ry="415.4722" /></g></g></g></g></svg>