<?xml version="1.0" encoding="utf-8"?>
<!-- Generator: Adobe Illustrator 18.0.0, SVG Export Plug-In . SVG Version: 6.00 Build 0)  -->
<!DOCTYPE svg PUBLIC "-//W3C//DTD SVG 1.1//EN" "http://www.w3.org/Graphics/SVG/1.1/DTD/svg11.dtd">
<svg version="1.1" id="Capa_1" xmlns="http://www.w3.org/2000/svg" xmlns:xlink="http://www.w3.org/1999/xlink" x="0px" y="0px"
	 viewBox="0 0 417.6 597.6" enable-background="new 0 0 417.6 597.6" xml:space="preserve">
<g>
	<g>
		<path d="M208.8,188.7c-60.7,0-110.1,49.4-110.1,110.1c0,60.8,49.5,110.1,110.1,110.1c60.7,0,110.1-49.4,110.1-110.1
			C318.9,238.1,269.5,188.7,208.8,188.7z M208.8,384.4c-20,0-38.4-6.9-53-18.4c10.8-18.8,30.8-30.5,53-30.5
			c22.2,0,42.1,11.8,53,30.5C247.2,377.6,228.8,384.4,208.8,384.4z M184.3,286.6c0-13.5,11-24.5,24.5-24.5s24.5,11,24.5,24.5
			s-11,24.5-24.5,24.5S184.3,300.1,184.3,286.6z M279.1,347.7c-8.6-12.4-20.3-22.2-33.8-28.5c7.7-8.7,12.5-20.1,12.5-32.6
			c0-27-22-48.9-48.9-48.9s-48.9,22-48.9,48.9c0,12.5,4.7,23.9,12.5,32.6c-13.5,6.3-25.2,16.1-33.8,28.5
			c-9.7-13.9-15.4-30.7-15.4-48.9c0-47.2,38.4-85.6,85.6-85.6s85.6,38.4,85.6,85.6C294.4,317,288.8,333.8,279.1,347.7z"/>
	</g>
</g>
<g>
	<g>
		<path d="M407.3,262.3l-32.5-5.3c-4.1-16.2-10.5-31.6-19.1-46l18.7-26.2c3.5-4.9,2.9-11.5-1.3-15.8l-34.6-34.6
			c-4.2-4.2-10.9-4.8-15.8-1.3l-26.2,18.7c-14.4-8.6-29.8-15-46-19.1l-5.3-32.5c-1-5.9-6.1-10.3-12.1-10.3h-48.9
			c-6,0-11.1,4.3-12.1,10.3l-5.3,32.5c-16.2,4.1-31.6,10.5-46,19.1l-26.2-18.7c-4.9-3.5-11.5-2.9-15.8,1.3L44.4,169
			c-4.2,4.2-4.8,10.9-1.3,15.8L61.8,211c-8.6,14.4-15,29.8-19.1,46l-32.5,5.3c-5.9,1-10.3,6.1-10.3,12.1v48.9
			c0,6,4.3,11.1,10.3,12.1l32.5,5.3c4.1,16.2,10.5,31.6,19.1,46l-18.7,26.2c-3.5,4.9-2.9,11.5,1.3,15.8L79,463.2
			c4.2,4.2,10.9,4.8,15.8,1.3l26.2-18.7c14.4,8.6,29.8,15,46,19.1l5.3,32.5c1,5.9,6.1,10.3,12.1,10.3h48.9c6,0,11.1-4.3,12.1-10.3
			l5.3-32.5c16.2-4.1,31.6-10.5,46-19.1l26.2,18.7c4.9,3.5,11.5,2.9,15.8-1.3l34.6-34.6c4.2-4.2,4.8-10.9,1.3-15.8l-18.7-26.2
			c8.6-14.4,15-29.8,19.1-46l32.5-5.3c5.9-1,10.3-6.1,10.3-12.1v-48.9C417.6,268.3,413.3,263.2,407.3,262.3z M393.1,312.9l-30.4,5
			c-5,0.8-9,4.7-10,9.7c-3.8,18.9-11.1,36.6-21.9,52.7c-2.8,4.2-2.7,9.8,0.2,13.9l17.5,24.4l-19.9,19.9l-24.4-17.5
			c-4.1-3-9.7-3-13.9-0.2c-16.1,10.8-33.8,18.1-52.7,21.9c-5,1-8.9,5-9.7,10l-5,30.4h-28.1l-5-30.4c-0.8-5-4.7-9-9.7-10
			c-18.9-3.8-36.6-11.1-52.7-21.9c-4.2-2.8-9.8-2.7-13.9,0.2L89,438.5l-19.9-19.9l17.5-24.4c3-4.1,3-9.7,0.2-13.9
			c-10.8-16.1-18.1-33.8-21.9-52.7c-1-5-5-8.9-10-9.7l-30.4-5v-28.1l30.4-5c5-0.8,9-4.7,10-9.7c3.8-18.9,11.1-36.6,21.9-52.7
			c2.8-4.2,2.7-9.8-0.2-13.9L69.1,179L89,159.1l24.4,17.5c4.1,3,9.7,3,13.9,0.2c16.1-10.8,33.8-18.1,52.7-21.9c5-1,8.9-5,9.7-10
			l5-30.4h28.1l5,30.4c0.8,5,4.7,9,9.7,10c18.9,3.8,36.6,11.1,52.7,21.9c4.2,2.8,9.8,2.7,13.9-0.2l24.4-17.5l19.9,19.9l-17.5,24.4
			c-3,4.1-3,9.7-0.2,13.9c10.8,16.1,18.1,33.8,21.9,52.7c1,5,5,8.9,10,9.7l30.4,5V312.9z"/>
	</g>
</g>
</svg>
