<?xml version="1.0" encoding="UTF-8" standalone="no"?>
<svg
   xmlns:dc="http://purl.org/dc/elements/1.1/"
   xmlns:cc="http://creativecommons.org/ns#"
   xmlns:rdf="http://www.w3.org/1999/02/22-rdf-syntax-ns#"
   xmlns:svg="http://www.w3.org/2000/svg"
   xmlns="http://www.w3.org/2000/svg"
   xmlns:sodipodi="http://sodipodi.sourceforge.net/DTD/sodipodi-0.dtd"
   xmlns:inkscape="http://www.inkscape.org/namespaces/inkscape"
   version="1.1"
   id="Capa_1"
   x="0px"
   y="0px"
   viewBox="-33.4 0 484.4 597.6"
   enable-background="new -33.4 0 484.4 597.6"
   xml:space="preserve"
   sodipodi:docname="blockchain-01.svg"
   inkscape:version="1.0.1 (3bc2e813f5, 2020-09-07)"><metadata
   id="metadata21"><rdf:RDF><cc:Work
       rdf:about=""><dc:format>image/svg+xml</dc:format><dc:type
         rdf:resource="http://purl.org/dc/dcmitype/StillImage" /></cc:Work></rdf:RDF></metadata><defs
   id="defs19" /><sodipodi:namedview
   pagecolor="#ffffff"
   bordercolor="#666666"
   borderopacity="1"
   objecttolerance="10"
   gridtolerance="10"
   guidetolerance="10"
   inkscape:pageopacity="0"
   inkscape:pageshadow="2"
   inkscape:window-width="1920"
   inkscape:window-height="1001"
   id="namedview17"
   showgrid="false"
   inkscape:zoom="1.3888889"
   inkscape:cx="294.55818"
   inkscape:cy="325.2512"
   inkscape:window-x="-9"
   inkscape:window-y="-9"
   inkscape:window-maximized="1"
   inkscape:current-layer="Capa_1"
   inkscape:snap-page="false" />
<ellipse
   style="fill:#ff0000;stroke-width:14.6742;opacity:0.2"
   id="path50"
   cx="210.66748"
   cy="298.44"
   rx="261.98395"
   ry="262.04544" />
<g
   id="g83"
   transform="translate(-3.6000038,5.7599996)"><path
     d="m 382.8,312.7 c 7.7,0 13.9,-6.2 13.9,-13.9 v -21.9 c 13.6,-3.5 22.4,-16.5 20.6,-30.4 -1.8,-13.9 -13.6,-24.3 -27.6,-24.3 -14,0 -25.8,10.4 -27.6,24.3 -1.8,13.9 7.1,26.9 20.6,30.4 v 21.9 H 327 c 0.1,-31.4 -12.4,-61.5 -34.6,-83.6 -4.4,-4.3 -9.1,-8.3 -14.1,-11.9 v -8.9 h 97.4 c 7.7,0 13.9,-6.2 13.9,-13.9 v -14.9 c 13.6,-3.5 22.4,-16.5 20.6,-30.4 -1.8,-13.9 -13.6,-24.3 -27.6,-24.3 -14,0 -25.8,10.4 -27.6,24.3 -1.8,13.9 7.1,26.9 20.6,30.4 v 14.9 h -97.4 c -7.7,0 -13.9,6.2 -13.9,13.9 -15.1,-8 -31.7,-12.6 -48.7,-13.5 v -14.3 h 27.8 c 7.7,0 13.9,-6.2 13.9,-13.9 v -7.9 c 13.6,-3.5 22.4,-16.5 20.6,-30.4 -1.8,-13.9 -13.6,-24.3 -27.6,-24.3 -14,0 -25.8,10.4 -27.6,24.3 -1.8,13.9 7.1,26.9 20.6,30.4 v 7.9 h -27.8 c -7.7,0 -13.9,6.2 -13.9,13.9 v 14.3 c -9.4,0.5 -18.8,2.1 -27.8,4.9 v -53.9 c 0,-7.7 -6.2,-13.9 -13.9,-13.9 H 89.6 C 86.1,104.4 73.1,95.6 59.2,97.4 45.3,99.2 34.9,111 34.9,125 c 0,14 10.4,25.8 24.3,27.6 13.9,1.8 26.9,-7.1 30.4,-20.6 h 70.6 v 59.3 c -30.9,13.9 -54.4,40.5 -64.4,72.9 H 34.9 V 228.4 C 48.5,224.9 57.3,211.9 55.5,198 53.8,183.9 42,173.5 28,173.5 14,173.5 2.2,183.9 0.4,197.8 -1.4,211.7 7.5,224.7 21,228.2 V 264 c 0,7.7 6.2,13.9 13.9,13.9 h 57.6 c -1.3,6.9 -1.9,13.9 -1.9,20.9 H 76.7 c -7.7,0 -13.9,6.2 -13.9,13.9 v 97.4 H 54.9 C 51.4,396.5 38.4,387.7 24.5,389.5 10.6,391.3 0.1,403 0.1,417.1 c 0,14 10.4,25.8 24.3,27.6 13.9,1.8 26.9,-7.1 30.4,-20.6 h 7.9 c 7.7,0 13.9,-6.2 13.9,-13.9 v -97.4 h 14.8 c 4.8,41.2 30.9,76.8 68.7,93.8 v 66.2 H 117.4 C 113.9,459.2 100.9,450.4 87,452.2 73.1,454 62.7,465.8 62.7,479.8 c 0,14 10.4,25.8 24.3,27.6 13.9,1.8 26.9,-7.1 30.4,-20.6 h 42.7 c 7.7,0 13.9,-6.2 13.9,-13.9 v -60.8 c 9,2.7 18.4,4.4 27.8,4.9 v 14 c 0,7.7 6.2,13.9 13.9,13.9 h 48.7 v 7.9 c -13.6,3.5 -22.4,16.5 -20.6,30.4 1.8,13.9 13.6,24.3 27.6,24.3 14,0 25.8,-10.4 27.6,-24.3 1.8,-13.9 -7.1,-26.9 -20.6,-30.4 v -7.9 c 0,-7.7 -6.2,-13.9 -13.9,-13.9 h -48.7 v -14.3 c 28.9,-1.6 56.2,-13.8 76.7,-34.3 8.3,-8.2 15.3,-17.7 20.8,-28 h 55.6 V 425 c -13.6,3.5 -22.4,16.5 -20.6,30.4 1.8,13.9 13.6,24.3 27.6,24.3 14,0 25.8,-10.4 27.6,-24.3 1.8,-13.9 -7.1,-26.9 -20.6,-30.4 v -70.6 c 0,-7.7 -6.2,-13.9 -13.9,-13.9 h -49.4 c 3.4,-9 5.7,-18.3 6.8,-27.8 z m -7,-62.6 c 0,-7.7 6.2,-13.9 13.9,-13.9 7.7,0 13.9,6.2 13.9,13.9 0,7.7 -6.2,13.9 -13.9,13.9 -7.7,0 -13.9,-6.2 -13.9,-13.9 z m -6.9,-111.3 c 0,-7.7 6.2,-13.9 13.9,-13.9 7.7,0 13.9,6.2 13.9,13.9 0,7.7 -6.2,13.9 -13.9,13.9 -7.7,0 -13.9,-6.2 -13.9,-13.9 z M 236.7,117.9 c 0,-7.7 6.2,-13.9 13.9,-13.9 7.7,0 13.9,6.2 13.9,13.9 0,7.7 -6.2,13.9 -13.9,13.9 -7.7,0 -13.9,-6.2 -13.9,-13.9 z M 62.8,138.8 c -7.7,0 -13.9,-6.2 -13.9,-13.9 0,-7.7 6.2,-13.9 13.9,-13.9 7.7,0 13.9,6.2 13.9,13.9 0,7.7 -6.3,13.9 -13.9,13.9 z M 28,215.3 c -7.7,0 -13.9,-6.2 -13.9,-13.9 0,-7.7 6.2,-13.9 13.9,-13.9 7.7,0 13.9,6.2 13.9,13.9 0,7.7 -6.2,13.9 -13.9,13.9 z M 28,431 c -7.7,0 -13.9,-6.2 -13.9,-13.9 0,-7.7 6.2,-13.9 13.9,-13.9 7.7,0 13.9,6.2 13.9,13.9 0,7.6 -6.2,13.9 -13.9,13.9 z m 62.6,62.6 c -7.7,0 -13.9,-6.2 -13.9,-13.9 0,-7.7 6.2,-13.9 13.9,-13.9 7.7,0 13.9,6.2 13.9,13.9 0,7.7 -6.2,13.9 -13.9,13.9 z m 180.9,-27.8 c 7.7,0 13.9,6.2 13.9,13.9 0,7.7 -6.2,13.9 -13.9,13.9 -7.7,0 -13.9,-6.2 -13.9,-13.9 0,-7.7 6.2,-13.9 13.9,-13.9 z m 11.1,-93.2 c -35.2,35.2 -90.4,40.6 -131.8,13 -41.4,-27.7 -57.5,-80.7 -38.4,-126.7 19.1,-46 67.9,-72.1 116.8,-62.4 48.8,9.7 84,52.6 84,102.3 0.1,27.7 -10.9,54.3 -30.6,73.8 z m 93.2,65.3 c 7.7,0 13.9,6.2 13.9,13.9 0,7.7 -6.2,13.9 -13.9,13.9 -7.7,0 -13.9,-6.2 -13.9,-13.9 0,-7.7 6.2,-13.9 13.9,-13.9 z"
     id="path2"
     style="fill:#ff0000" /><g
     id="g14"
     style="fill:#ff0000">
	<path
   d="M 263.3,261.1 229,226.8 c -0.8,-0.8 -1.9,-1.3 -3,-1.3 h -60.1 c -7.1,0 -12.9,5.8 -12.9,12.9 v 120.7 c 0,7.1 5.8,12.9 12.9,12.9 h 85.8 c 7.1,0 12.9,-5.8 12.9,-12.9 v -95 c 0,-1.1 -0.5,-2.2 -1.3,-3 z m -33,-20.9 19.7,19.7 h -15.4 c -2.4,0 -4.3,-1.9 -4.3,-4.3 z m 21.4,123.3 h -85.8 c -2.4,0 -4.3,-1.9 -4.3,-4.3 V 238.4 c 0,-2.4 1.9,-4.3 4.3,-4.3 h 55.8 v 21.5 c 0,7.1 5.8,12.9 12.9,12.9 H 256 v 90.7 c 0,2.3 -1.9,4.3 -4.3,4.3 z"
   id="path4"
   style="fill:#ff0000" />
	<path
   d="M 234.5,286.2 H 183 c -2.4,0 -4.3,1.9 -4.3,4.3 0,2.4 1.9,4.3 4.3,4.3 h 51.5 c 2.4,0 4.3,-1.9 4.3,-4.3 0,-2.4 -1.9,-4.3 -4.3,-4.3 z"
   id="path6"
   style="fill:#ff0000" />
	<path
   d="M 234.5,303.4 H 183 c -2.4,0 -4.3,1.9 -4.3,4.3 0,2.4 1.9,4.3 4.3,4.3 h 51.5 c 2.4,0 4.3,-1.9 4.3,-4.3 0,-2.4 -1.9,-4.3 -4.3,-4.3 z"
   id="path8"
   style="fill:#ff0000" />
	<path
   d="M 234.5,320.5 H 183 c -2.4,0 -4.3,1.9 -4.3,4.3 0,2.4 1.9,4.3 4.3,4.3 h 51.5 c 2.4,0 4.3,-1.9 4.3,-4.3 0,-2.4 -1.9,-4.3 -4.3,-4.3 z"
   id="path10"
   style="fill:#ff0000" />
	<path
   d="m 217.4,337.7 h -34.3 c -2.4,0 -4.3,1.9 -4.3,4.3 0,2.4 1.9,4.3 4.3,4.3 h 34.3 c 2.4,0 4.3,-1.9 4.3,-4.3 0,-2.4 -1.9,-4.3 -4.3,-4.3 z"
   id="path12"
   style="fill:#ff0000" />
</g></g>
</svg>
