<?xml version="1.0" encoding="utf-8"?>
<!-- Generator: Adobe Illustrator 18.0.0, SVG Export Plug-In . SVG Version: 6.00 Build 0)  -->
<!DOCTYPE svg PUBLIC "-//W3C//DTD SVG 1.1//EN" "http://www.w3.org/Graphics/SVG/1.1/DTD/svg11.dtd">
<svg version="1.1" id="Capa_1" xmlns="http://www.w3.org/2000/svg" xmlns:xlink="http://www.w3.org/1999/xlink" x="0px" y="0px"
	 viewBox="0 0 512 512" enable-background="new 0 0 512 512" xml:space="preserve">
<g>
	<path d="M411,264.6V143.4c0-3.6-1.6-7.1-4.2-9.8L295.3,22.2c-2.6-2.6-6.2-4.2-9.8-4.2H90.3c-23.1,0-41.9,18.9-41.9,41.9v392.3
		c0,23.1,18.9,41.9,41.9,41.9h278.8c23.1,0,41.9-18.9,41.9-41.9v-17.5h-18.9l-0.1,27.6c0,7.9-6.6,14.8-15,14.8l-297.9,1
		c-8.4,0-15-6.6-15-14.8l2-415.2c0-8.3,6.6-14.8,15-14.8h192.4v73.1c0,24.5,20.2,44.5,44.9,44.5h74.5l-0.4,113.9H411z M312.4,134.3
		c-9.7,0-17.4-7.7-17.4-17.4V54.6l79.7,79.7H312.4z"/>
	<path d="M273.3,256.2H105.9c-7.8,0-14,4.5-14,10.3s6.2,10.3,14,10.3h167.4c7.8,0,14-4.5,14-10.3S281.1,256.2,273.3,256.2z"/>
	<path d="M273.3,295.2H105.9c-7.8,0-14,4.5-14,10.3s6.2,10.3,14,10.3h167.4c7.8,0,14-4.5,14-10.3S281.1,295.2,273.3,295.2z"/>
	<path d="M273.3,335.2H105.9c-7.8,0-14,4.5-14,10.3c0,5.7,6.2,10.3,14,10.3h167.4c7.8,0,14-4.5,14-10.3
		C287.3,339.7,281.1,335.2,273.3,335.2z"/>
	<path d="M217.4,374.2H105.9c-7.8,0-14,4.5-14,10.3s6.2,10.3,14,10.3h111.5c7.8,0,14-4.5,14-10.3S225.2,374.2,217.4,374.2z"/>
</g>
<g>
	<g>
		<path d="M475.1,340.1c3.9-5.9,3.2-13.6-1.7-18.8c-2.2-2.3-3.1-5.4-2.4-8.5c1.5-6.9-2-13.9-8.4-16.9c-2.8-1.3-4.8-4-5.3-7
			c-1.1-7-6.9-12.2-13.9-12.7c-3.1-0.2-5.9-1.9-7.5-4.6c-3.6-6.1-10.8-8.9-17.6-6.8c-3,0.9-6.2,0.3-8.7-1.6
			c-5.5-4.4-13.3-4.4-18.8,0c-2.4,1.9-5.7,2.5-8.7,1.6c-6.8-2.1-14,0.7-17.6,6.8c-1.6,2.7-4.4,4.4-7.5,4.6
			c-7.1,0.5-12.8,5.7-13.9,12.7c-0.5,3.1-2.5,5.7-5.3,7c-6.4,3-9.9,9.9-8.4,16.9c0.6,3.1-0.3,6.2-2.4,8.5
			c-4.9,5.1-5.6,12.8-1.7,18.8c1.7,2.6,2,5.9,0.8,8.8c-2.7,6.5-0.6,14,5.2,18.1c2.5,1.8,4,4.8,3.9,7.9c-0.2,7.1,4.5,13.3,11.4,15
			c2,0.5,3.8,1.7,5,3.3l-15.8,38.1c-2.2,5.3,2.8,10.8,8.3,9.1l17.3-5.3c0.5-0.2,1,0.1,1.3,0.5l8.5,16c2.7,5.1,10.1,4.7,12.3-0.6
			l16.4-39.7c0.2,0,0.4,0,0.6,0l16.4,39.7c2.2,5.3,9.6,5.7,12.3,0.6l8.5-16c0.2-0.5,0.8-0.7,1.3-0.5l17.3,5.3
			c5.5,1.7,10.5-3.8,8.3-9.1l-15.8-38.1c1.3-1.6,3-2.8,5-3.3c6.9-1.8,11.5-8,11.4-15c-0.1-3.1,1.4-6.1,3.9-7.9
			c5.8-4.1,7.9-11.6,5.2-18.1C473.1,346,473.4,342.7,475.1,340.1L475.1,340.1z M378.1,448.8c-0.4,0.9-1.6,0.9-2,0.1l-8.5-16
			c-1.5-2.9-4.9-4.3-8-3.3l-17.3,5.3c-0.9,0.3-1.7-0.6-1.3-1.5l14-33.8c3.2,4.3,8.4,6.7,14,6.1c3.1-0.4,6.2,0.8,8.2,3.2
			c3,3.4,7.2,5.2,11.4,5.2c1.4,0,2.7-0.2,4-0.6L378.1,448.8z M458,435l-17.3-5.3c-3.1-1-6.5,0.4-8,3.3l-8.5,16
			c-0.4,0.8-1.6,0.8-2-0.1l-14.6-35.2c5.5,1.5,11.6-0.2,15.5-4.7c2-2.4,5.1-3.5,8.2-3.2c5.6,0.6,10.8-1.8,14-6.1l14,33.8
			C459.7,434.3,458.9,435.2,458,435L458,435z M470.3,336.9c-2.7,4.2-3.2,9.5-1.3,14.1c1.7,4.1,0.4,8.7-3.2,11.3
			c-4.1,2.9-6.4,7.7-6.3,12.7c0.1,4.4-2.8,8.3-7.1,9.4c-4,1-7.3,3.6-9.4,7.1c0,0,0,0,0,0c-0.4,0.7-0.8,1.5-1.1,2.4
			c-1.5,4.1-5.6,6.7-10,6.2c-5-0.6-9.9,1.3-13.2,5.1c-2.9,3.3-7.6,4.2-11.5,2.2c-1.3-0.7-2.7-1.2-4.2-1.5c0,0,0,0,0,0
			c-1.9-0.4-3.9-0.4-5.8,0c0,0,0,0,0,0c-1.4,0.3-2.8,0.8-4.2,1.5c-3.9,2.1-8.6,1.2-11.5-2.2c-2.9-3.3-7.1-5.2-11.4-5.2
			c-0.6,0-1.2,0-1.8,0.1c-4.4,0.5-8.5-2-10-6.2c-0.3-0.8-0.7-1.6-1.1-2.4c0,0,0,0,0,0c-2-3.5-5.4-6.1-9.4-7.1
			c-4.3-1.1-7.2-5-7.1-9.4c0.1-5-2.2-9.8-6.3-12.7c-3.6-2.6-4.9-7.2-3.2-11.3c1.9-4.6,1.4-9.9-1.3-14.1c-2.4-3.7-2-8.5,1.1-11.7
			c3.5-3.6,4.9-8.7,3.9-13.6c-0.9-4.3,1.2-8.6,5.2-10.5c4.5-2.1,7.7-6.4,8.5-11.3c0.7-4.4,4.3-7.6,8.7-7.9c5-0.3,9.5-3.1,12-7.5
			c2.2-3.8,6.7-5.5,10.9-4.2c4.8,1.5,10,0.5,13.9-2.6c3.5-2.7,8.3-2.7,11.7,0c3.9,3.1,9.1,4.1,13.9,2.6c4.2-1.3,8.7,0.4,10.9,4.2
			c2.5,4.3,7,7.1,12,7.5c4.4,0.3,8,3.6,8.7,7.9c0.8,4.9,4,9.2,8.5,11.3c4,1.9,6.1,6.2,5.2,10.5c-1,4.9,0.4,10,3.9,13.6
			C472.3,328.5,472.8,333.3,470.3,336.9L470.3,336.9z"/>
		<path d="M346,333.2c1.6,0.2,3-0.9,3.2-2.5c3.2-25.7,25.1-45.1,51-45.1c25.9,0,47.9,19.4,51,45.1c0.2,1.5,1.4,2.5,2.8,2.5
			c0.1,0,0.2,0,0.4,0c1.6-0.2,2.7-1.6,2.5-3.2c-3.5-28.6-27.9-50.1-56.7-50.1c-28.8,0-53.2,21.5-56.7,50.1
			C343.3,331.6,344.4,333,346,333.2L346,333.2z"/>
		<path d="M454.4,340.9c-1.6-0.2-3,0.9-3.2,2.5c-3.1,25.7-25.1,45.1-51,45.1c-25.9,0-47.9-19.4-51-45.1c-0.2-1.6-1.6-2.7-3.2-2.5
			c-1.6,0.2-2.7,1.6-2.5,3.2c3.5,28.6,27.9,50.1,56.7,50.1c28.8,0,53.2-21.5,56.7-50.1C457.1,342.5,456,341,454.4,340.9z"/>
		<path d="M440.6,325.2c-0.7-2.2-2.7-3.7-5.1-3.8l-22.4-0.8l-7.7-21.1c-0.8-2.2-2.8-3.6-5.2-3.6s-4.4,1.4-5.2,3.6l-7.7,21.1
			l-22.4,0.8c-2.4,0.1-4.3,1.6-5.1,3.8c-0.7,2.2,0,4.6,1.9,6.1l17.7,13.8l-6.2,21.6c-0.6,2.3,0.2,4.6,2.1,6c1.9,1.4,4.4,1.4,6.3,0.1
			l18.6-12.5l18.6,12.5c2,1.3,4.4,1.3,6.3-0.1c1.9-1.4,2.7-3.7,2.1-6l-6.2-21.6l17.7-13.8C440.6,329.8,441.3,327.5,440.6,325.2
			L440.6,325.2z M417.4,340.7c-1.8,1.4-2.5,3.7-1.9,5.9l6.1,21.2l-18.3-12.3c-0.9-0.6-2-0.9-3.1-0.9s-2.2,0.3-3.1,0.9l-18.3,12.3
			l6.1-21.2c0.6-2.2-0.1-4.5-1.9-5.9l-17.4-13.6l22.1-0.8c2.3-0.1,4.2-1.5,5-3.6l7.6-20.7l7.6,20.7c0.8,2.1,2.7,3.6,5,3.6l22.1,0.8
			L417.4,340.7z"/>
	</g>
</g>
</svg>
