<?xml version="1.0" encoding="UTF-8" standalone="no"?>
<!-- Generator: Adobe Illustrator 18.0.0, SVG Export Plug-In . SVG Version: 6.00 Build 0)  -->

<svg
   xmlns:dc="http://purl.org/dc/elements/1.1/"
   xmlns:cc="http://creativecommons.org/ns#"
   xmlns:rdf="http://www.w3.org/1999/02/22-rdf-syntax-ns#"
   xmlns:svg="http://www.w3.org/2000/svg"
   xmlns="http://www.w3.org/2000/svg"
   xmlns:sodipodi="http://sodipodi.sourceforge.net/DTD/sodipodi-0.dtd"
   xmlns:inkscape="http://www.inkscape.org/namespaces/inkscape"
   version="1.1"
   id="Capa_1"
   x="0px"
   y="0px"
   viewBox="0 0 433.88858 433.6254"
   enable-background="new 0 0 512 512"
   xml:space="preserve"
   sodipodi:docname="closed complaint-01.svg"
   inkscape:version="0.92.4 (5da689c313, 2019-01-14)"
   width="433.88858"
   height="433.6254"><metadata
   id="metadata31"><rdf:RDF><cc:Work
       rdf:about=""><dc:format>image/svg+xml</dc:format><dc:type
         rdf:resource="http://purl.org/dc/dcmitype/StillImage" /><dc:title></dc:title></cc:Work></rdf:RDF></metadata><defs
   id="defs29" /><sodipodi:namedview
   pagecolor="#ffffff"
   bordercolor="#666666"
   borderopacity="1"
   objecttolerance="10"
   gridtolerance="10"
   guidetolerance="10"
   inkscape:pageopacity="0"
   inkscape:pageshadow="2"
   inkscape:window-width="1920"
   inkscape:window-height="1001"
   id="namedview27"
   showgrid="false"
   inkscape:zoom="0.4609375"
   inkscape:cx="1136.1731"
   inkscape:cy="473.04316"
   inkscape:window-x="-9"
   inkscape:window-y="-9"
   inkscape:window-maximized="1"
   inkscape:current-layer="Capa_1"
   showborder="false"
   fit-margin-top="0"
   fit-margin-left="0"
   fit-margin-right="0"
   fit-margin-bottom="0" />


<g
   id="g5951"
   transform="translate(1074.3426,-295.41778)"
   inkscape:export-xdpi="50"
   inkscape:export-ydpi="50"><g
     id="g5929"><g
       id="g5908"><g
         transform="matrix(0.49248611,0,0,0.49218738,-545.21635,370.25643)"
         id="g5888"><g
           id="g5801"
           style="fill:#008000"
           transform="translate(-89.87853,32.405267)"><g
             id="g5829"
             transform="translate(-781.01695)"><g
               style="fill:#008000"
               id="g5785"><g
                 style="fill:#008000"
                 id="g5770"><g
                   style="fill:#008000"
                   id="g12">
	<path
   style="fill:#008000"
   d="M 411,264.6 V 143.4 c 0,-3.6 -1.6,-7.1 -4.2,-9.8 L 295.3,22.2 C 292.7,19.6 289.1,18 285.5,18 H 90.3 C 67.2,18 48.4,36.9 48.4,59.9 v 392.3 c 0,23.1 18.9,41.9 41.9,41.9 h 278.8 c 23.1,0 41.9,-18.9 41.9,-41.9 v -17.5 h -18.9 l -0.1,27.6 c 0,7.9 -6.6,14.8 -15,14.8 l -297.9,1 c -8.4,0 -15,-6.6 -15,-14.8 l 2,-415.2 c 0,-8.3 6.6,-14.8 15,-14.8 h 192.4 v 73.1 c 0,24.5 20.2,44.5 44.9,44.5 h 74.5 l -0.4,113.9 H 411 Z M 312.4,134.3 c -9.7,0 -17.4,-7.7 -17.4,-17.4 V 54.6 l 79.7,79.7 z"
   id="path2"
   inkscape:connector-curvature="0" />
	<path
   style="fill:#008000"
   d="M 273.3,256.2 H 105.9 c -7.8,0 -14,4.5 -14,10.3 0,5.8 6.2,10.3 14,10.3 h 167.4 c 7.8,0 14,-4.5 14,-10.3 0,-5.8 -6.2,-10.3 -14,-10.3 z"
   id="path4"
   inkscape:connector-curvature="0" />
	<path
   style="fill:#008000"
   d="M 273.3,295.2 H 105.9 c -7.8,0 -14,4.5 -14,10.3 0,5.8 6.2,10.3 14,10.3 h 167.4 c 7.8,0 14,-4.5 14,-10.3 0,-5.8 -6.2,-10.3 -14,-10.3 z"
   id="path6"
   inkscape:connector-curvature="0" />
	<path
   style="fill:#008000"
   d="M 273.3,335.2 H 105.9 c -7.8,0 -14,4.5 -14,10.3 0,5.7 6.2,10.3 14,10.3 h 167.4 c 7.8,0 14,-4.5 14,-10.3 0,-5.8 -6.2,-10.3 -14,-10.3 z"
   id="path8"
   inkscape:connector-curvature="0" />
	<path
   style="fill:#008000"
   d="M 217.4,374.2 H 105.9 c -7.8,0 -14,4.5 -14,10.3 0,5.8 6.2,10.3 14,10.3 h 111.5 c 7.8,0 14,-4.5 14,-10.3 0,-5.8 -6.2,-10.3 -14,-10.3 z"
   id="path10"
   inkscape:connector-curvature="0" />
</g><g
                   style="fill:#008000"
                   id="g24">
	<g
   style="fill:#008000"
   id="g22">
		<path
   style="fill:#008000"
   d="m 475.1,340.1 c 3.9,-5.9 3.2,-13.6 -1.7,-18.8 -2.2,-2.3 -3.1,-5.4 -2.4,-8.5 1.5,-6.9 -2,-13.9 -8.4,-16.9 -2.8,-1.3 -4.8,-4 -5.3,-7 -1.1,-7 -6.9,-12.2 -13.9,-12.7 -3.1,-0.2 -5.9,-1.9 -7.5,-4.6 -3.6,-6.1 -10.8,-8.9 -17.6,-6.8 -3,0.9 -6.2,0.3 -8.7,-1.6 -5.5,-4.4 -13.3,-4.4 -18.8,0 -2.4,1.9 -5.7,2.5 -8.7,1.6 -6.8,-2.1 -14,0.7 -17.6,6.8 -1.6,2.7 -4.4,4.4 -7.5,4.6 -7.1,0.5 -12.8,5.7 -13.9,12.7 -0.5,3.1 -2.5,5.7 -5.3,7 -6.4,3 -9.9,9.9 -8.4,16.9 0.6,3.1 -0.3,6.2 -2.4,8.5 -4.9,5.1 -5.6,12.8 -1.7,18.8 1.7,2.6 2,5.9 0.8,8.8 -2.7,6.5 -0.6,14 5.2,18.1 2.5,1.8 4,4.8 3.9,7.9 -0.2,7.1 4.5,13.3 11.4,15 2,0.5 3.8,1.7 5,3.3 l -15.8,38.1 c -2.2,5.3 2.8,10.8 8.3,9.1 l 17.3,-5.3 c 0.5,-0.2 1,0.1 1.3,0.5 l 8.5,16 c 2.7,5.1 10.1,4.7 12.3,-0.6 l 16.4,-39.7 c 0.2,0 0.4,0 0.6,0 l 16.4,39.7 c 2.2,5.3 9.6,5.7 12.3,0.6 l 8.5,-16 c 0.2,-0.5 0.8,-0.7 1.3,-0.5 l 17.3,5.3 c 5.5,1.7 10.5,-3.8 8.3,-9.1 l -15.8,-38.1 c 1.3,-1.6 3,-2.8 5,-3.3 6.9,-1.8 11.5,-8 11.4,-15 -0.1,-3.1 1.4,-6.1 3.9,-7.9 5.8,-4.1 7.9,-11.6 5.2,-18.1 -1.2,-2.9 -0.9,-6.2 0.8,-8.8 z m -97,108.7 c -0.4,0.9 -1.6,0.9 -2,0.1 l -8.5,-16 c -1.5,-2.9 -4.9,-4.3 -8,-3.3 l -17.3,5.3 c -0.9,0.3 -1.7,-0.6 -1.3,-1.5 l 14,-33.8 c 3.2,4.3 8.4,6.7 14,6.1 3.1,-0.4 6.2,0.8 8.2,3.2 3,3.4 7.2,5.2 11.4,5.2 1.4,0 2.7,-0.2 4,-0.6 z M 458,435 440.7,429.7 c -3.1,-1 -6.5,0.4 -8,3.3 l -8.5,16 c -0.4,0.8 -1.6,0.8 -2,-0.1 l -14.6,-35.2 c 5.5,1.5 11.6,-0.2 15.5,-4.7 2,-2.4 5.1,-3.5 8.2,-3.2 5.6,0.6 10.8,-1.8 14,-6.1 l 14,33.8 c 0.4,0.8 -0.4,1.7 -1.3,1.5 z m 12.3,-98.1 c -2.7,4.2 -3.2,9.5 -1.3,14.1 1.7,4.1 0.4,8.7 -3.2,11.3 -4.1,2.9 -6.4,7.7 -6.3,12.7 0.1,4.4 -2.8,8.3 -7.1,9.4 -4,1 -7.3,3.6 -9.4,7.1 0,0 0,0 0,0 -0.4,0.7 -0.8,1.5 -1.1,2.4 -1.5,4.1 -5.6,6.7 -10,6.2 -5,-0.6 -9.9,1.3 -13.2,5.1 -2.9,3.3 -7.6,4.2 -11.5,2.2 -1.3,-0.7 -2.7,-1.2 -4.2,-1.5 0,0 0,0 0,0 -1.9,-0.4 -3.9,-0.4 -5.8,0 0,0 0,0 0,0 -1.4,0.3 -2.8,0.8 -4.2,1.5 -3.9,2.1 -8.6,1.2 -11.5,-2.2 -2.9,-3.3 -7.1,-5.2 -11.4,-5.2 -0.6,0 -1.2,0 -1.8,0.1 -4.4,0.5 -8.5,-2 -10,-6.2 -0.3,-0.8 -0.7,-1.6 -1.1,-2.4 0,0 0,0 0,0 -2,-3.5 -5.4,-6.1 -9.4,-7.1 -4.3,-1.1 -7.2,-5 -7.1,-9.4 0.1,-5 -2.2,-9.8 -6.3,-12.7 -3.6,-2.6 -4.9,-7.2 -3.2,-11.3 1.9,-4.6 1.4,-9.9 -1.3,-14.1 -2.4,-3.7 -2,-8.5 1.1,-11.7 3.5,-3.6 4.9,-8.7 3.9,-13.6 -0.9,-4.3 1.2,-8.6 5.2,-10.5 4.5,-2.1 7.7,-6.4 8.5,-11.3 0.7,-4.4 4.3,-7.6 8.7,-7.9 5,-0.3 9.5,-3.1 12,-7.5 2.2,-3.8 6.7,-5.5 10.9,-4.2 4.8,1.5 10,0.5 13.9,-2.6 3.5,-2.7 8.3,-2.7 11.7,0 3.9,3.1 9.1,4.1 13.9,2.6 4.2,-1.3 8.7,0.4 10.9,4.2 2.5,4.3 7,7.1 12,7.5 4.4,0.3 8,3.6 8.7,7.9 0.8,4.9 4,9.2 8.5,11.3 4,1.9 6.1,6.2 5.2,10.5 -1,4.9 0.4,10 3.9,13.6 3.4,3.3 3.9,8.1 1.4,11.7 z"
   id="path14"
   inkscape:connector-curvature="0" />
		<path
   style="fill:#008000"
   d="m 346,333.2 c 1.6,0.2 3,-0.9 3.2,-2.5 3.2,-25.7 25.1,-45.1 51,-45.1 25.9,0 47.9,19.4 51,45.1 0.2,1.5 1.4,2.5 2.8,2.5 0.1,0 0.2,0 0.4,0 1.6,-0.2 2.7,-1.6 2.5,-3.2 -3.5,-28.6 -27.9,-50.1 -56.7,-50.1 -28.8,0 -53.2,21.5 -56.7,50.1 -0.2,1.6 0.9,3 2.5,3.2 z"
   id="path16"
   inkscape:connector-curvature="0" />
		<path
   style="fill:#008000"
   d="m 454.4,340.9 c -1.6,-0.2 -3,0.9 -3.2,2.5 -3.1,25.7 -25.1,45.1 -51,45.1 -25.9,0 -47.9,-19.4 -51,-45.1 -0.2,-1.6 -1.6,-2.7 -3.2,-2.5 -1.6,0.2 -2.7,1.6 -2.5,3.2 3.5,28.6 27.9,50.1 56.7,50.1 28.8,0 53.2,-21.5 56.7,-50.1 0.2,-1.6 -0.9,-3.1 -2.5,-3.2 z"
   id="path18"
   inkscape:connector-curvature="0" />
		<path
   style="fill:#008000"
   d="m 440.6,325.2 c -0.7,-2.2 -2.7,-3.7 -5.1,-3.8 l -22.4,-0.8 -7.7,-21.1 c -0.8,-2.2 -2.8,-3.6 -5.2,-3.6 -2.4,0 -4.4,1.4 -5.2,3.6 l -7.7,21.1 -22.4,0.8 c -2.4,0.1 -4.3,1.6 -5.1,3.8 -0.7,2.2 0,4.6 1.9,6.1 l 17.7,13.8 -6.2,21.6 c -0.6,2.3 0.2,4.6 2.1,6 1.9,1.4 4.4,1.4 6.3,0.1 l 18.6,-12.5 18.6,12.5 c 2,1.3 4.4,1.3 6.3,-0.1 1.9,-1.4 2.7,-3.7 2.1,-6 l -6.2,-21.6 17.7,-13.8 c 1.9,-1.5 2.6,-3.8 1.9,-6.1 z m -23.2,15.5 c -1.8,1.4 -2.5,3.7 -1.9,5.9 l 6.1,21.2 -18.3,-12.3 c -0.9,-0.6 -2,-0.9 -3.1,-0.9 -1.1,0 -2.2,0.3 -3.1,0.9 l -18.3,12.3 6.1,-21.2 c 0.6,-2.2 -0.1,-4.5 -1.9,-5.9 l -17.4,-13.6 22.1,-0.8 c 2.3,-0.1 4.2,-1.5 5,-3.6 l 7.6,-20.7 7.6,20.7 c 0.8,2.1 2.7,3.6 5,3.6 l 22.1,0.8 z"
   id="path20"
   inkscape:connector-curvature="0" />
	</g>
</g></g></g></g></g><circle
           style="opacity:0.1;fill:#008000;fill-opacity:1;stroke:#000000;stroke-width:1.78555882;stroke-opacity:1"
           id="path5803"
           cx="-632.91205"
           cy="290.59445"
           r="439.61566"
           transform="rotate(0.1935048)" /></g></g></g></g></svg>