<?xml version="1.0" encoding="UTF-8" standalone="no"?>
<!-- Generator: Adobe Illustrator 18.0.0, SVG Export Plug-In . SVG Version: 6.00 Build 0)  -->

<svg
   xmlns:dc="http://purl.org/dc/elements/1.1/"
   xmlns:cc="http://creativecommons.org/ns#"
   xmlns:rdf="http://www.w3.org/1999/02/22-rdf-syntax-ns#"
   xmlns:svg="http://www.w3.org/2000/svg"
   xmlns="http://www.w3.org/2000/svg"
   xmlns:sodipodi="http://sodipodi.sourceforge.net/DTD/sodipodi-0.dtd"
   xmlns:inkscape="http://www.inkscape.org/namespaces/inkscape"
   version="1.1"
   id="Capa_1"
   x="0px"
   y="0px"
   viewBox="0 0 417.60156 405.8"
   enable-background="new 0 0 417.6 597.6"
   xml:space="preserve"
   sodipodi:docname="language-01.svg"
   width="417.60156"
   height="405.79999"
   inkscape:version="0.92.4 (5da689c313, 2019-01-14)"><metadata
   id="metadata77"><rdf:RDF><cc:Work
       rdf:about=""><dc:format>image/svg+xml</dc:format><dc:type
         rdf:resource="http://purl.org/dc/dcmitype/StillImage" /><dc:title></dc:title></cc:Work></rdf:RDF></metadata><defs
   id="defs75" /><sodipodi:namedview
   pagecolor="#ffffff"
   bordercolor="#666666"
   borderopacity="1"
   objecttolerance="10"
   gridtolerance="10"
   guidetolerance="10"
   inkscape:pageopacity="0"
   inkscape:pageshadow="2"
   inkscape:window-width="1920"
   inkscape:window-height="1001"
   id="namedview73"
   showgrid="false"
   showborder="false"
   fit-margin-top="0"
   fit-margin-left="0"
   fit-margin-right="0"
   fit-margin-bottom="0"
   inkscape:zoom="0.394913"
   inkscape:cx="465.81864"
   inkscape:cy="200.46783"
   inkscape:window-x="-9"
   inkscape:window-y="-9"
   inkscape:window-maximized="1"
   inkscape:current-layer="Capa_1" />












<g
   id="g5839"
   style="fill:#000064;fill-opacity:1"
   transform="translate(0,-96)"
   inkscape:export-xdpi="50"
   inkscape:export-ydpi="50"><g
     id="g6"
     style="fill:#000064;fill-opacity:1">
	<g
   id="g4"
   style="fill:#000064;fill-opacity:1">
		<path
   id="path2"
   d="m 92.5,386.9 c -3.5,0 -6.3,2.8 -6.3,6.3 v 10.5 c 0,3.5 2.8,6.3 6.3,6.3 3.5,0 6.3,-2.8 6.3,-6.3 v -10.5 c -0.1,-3.4 -2.9,-6.3 -6.3,-6.3 z"
   style="fill:#000064;fill-opacity:1"
   inkscape:connector-curvature="0" />
	</g>
</g><g
     id="g12"
     style="fill:#000064;fill-opacity:1">
	<g
   id="g10"
   style="fill:#000064;fill-opacity:1">
		<path
   id="path8"
   d="m 119.8,386.9 c -3.5,0 -6.3,2.8 -6.3,6.3 v 10.5 c 0,3.5 2.8,6.3 6.3,6.3 3.5,0 6.3,-2.8 6.3,-6.3 v -10.5 c 0,-3.4 -2.8,-6.3 -6.3,-6.3 z"
   style="fill:#000064;fill-opacity:1"
   inkscape:connector-curvature="0" />
	</g>
</g><g
     id="g18"
     style="fill:#000064;fill-opacity:1">
	<g
   id="g16"
   style="fill:#000064;fill-opacity:1">
		<path
   id="path14"
   d="m 95.7,445.1 c -9.8,-0.5 -16.8,-4.4 -21,-11.6 -1.7,-3 -5.6,-4.1 -8.6,-2.3 -3,1.7 -4.1,5.5 -2.3,8.6 6.3,11 17.1,17.2 31.2,17.9 0.1,0 0.2,0 0.3,0 3.3,0 6.1,-2.6 6.3,-5.9 0.2,-3.6 -2.5,-6.6 -5.9,-6.7 z"
   style="fill:#000064;fill-opacity:1"
   inkscape:connector-curvature="0" />
	</g>
</g><g
     id="g24"
     style="fill:#000064;fill-opacity:1">
	<g
   id="g22"
   style="fill:#000064;fill-opacity:1">
		<path
   id="path20"
   d="m 21.7,394.6 c 5.2,-2 11.2,-0.8 15.2,3.2 1.3,1.3 3,1.9 4.8,1.9 15.1,-0.2 27.5,-12.2 28.1,-27.3 h 51.5 c 34,0 61.6,-27.6 61.6,-61.6 0,-3.5 -2.8,-6.3 -6.3,-6.3 H 74.8 c -34,0 -61.6,27.6 -61.6,61.6 0,3.5 2.8,6.3 6.3,6.3 3.5,0 6.3,-2.8 6.3,-6.3 0,-27 22,-49.1 49.1,-49.1 H 170 c -3.1,24.1 -23.7,42.8 -48.7,42.8 H 63.5 c -3.5,0 -6.3,2.8 -6.3,6.3 v 5.1 c 0,8 -5.9,14.6 -13.6,15.7 -7.4,-5.9 -17.4,-7.5 -26.3,-4.1 -3.5,1.3 -6.7,3.4 -9.3,6.1 -5.2,5.2 -8,11.9 -8,19.1 0,7.2 2.8,13.9 7.9,19 2,2 4.1,3.6 6.5,4.8 6.2,32.6 35.1,56.8 68.7,56.8 38.6,0 70,-31.4 70,-70 v -35.8 c 0,-3.5 -2.8,-6.3 -6.3,-6.3 -3.5,0 -6.3,2.8 -6.3,6.3 v 35.8 c 0,31.7 -25.8,57.4 -57.4,57.4 -28.5,0 -53,-21.3 -56.9,-49.5 -0.3,-2.3 -1.9,-4.3 -4.1,-5.1 -2,-0.7 -3.9,-1.9 -5.4,-3.4 -2.7,-2.7 -4.2,-6.3 -4.2,-10.1 0,-3.8 1.5,-7.4 4.2,-10.1 1.5,-1.4 3.1,-2.5 5,-3.2 z"
   style="fill:#000064;fill-opacity:1"
   inkscape:connector-curvature="0" />
	</g>
</g><g
     id="g30"
     style="fill:#000064;fill-opacity:1">
	<g
   id="g28"
   style="fill:#000064;fill-opacity:1">
		<path
   id="path26"
   d="m 231.7,233.5 c -3.5,0 -6.3,2.8 -6.3,6.3 0,6.5 -5.3,11.8 -11.8,11.8 h -39.4 c -1.8,0 -3.5,0.8 -4.7,2.1 l -18,20.3 v -16.2 c 0,-3.5 -2.8,-6.3 -6.3,-6.3 H 56.6 c -6.5,0 -11.8,-5.3 -11.8,-11.8 v -79.3 c 0,-6.5 5.3,-11.8 11.8,-11.8 h 119.9 c 3.5,0 6.3,-2.8 6.3,-6.3 0,-3.5 -2.8,-6.3 -6.3,-6.3 H 56.6 c -13.4,0 -24.3,10.9 -24.3,24.3 v 79.3 c 0,13.4 10.9,24.3 24.3,24.3 h 82.3 v 26.3 c 0,2.6 1.6,4.9 4,5.9 0.7,0.3 1.5,0.4 2.2,0.4 1.8,0 3.5,-0.7 4.7,-2.1 L 177,263.9 h 36.6 c 13.4,0 24.3,-10.9 24.3,-24.3 0.1,-3.3 -2.7,-6.1 -6.2,-6.1 z"
   style="fill:#000064;fill-opacity:1"
   inkscape:connector-curvature="0" />
	</g>
</g><g
     id="g36"
     style="fill:#000064;fill-opacity:1">
	<g
   id="g34"
   style="fill:#000064;fill-opacity:1">
		<path
   id="path32"
   d="m 373.1,96 h -14.3 c -3.5,0 -6.3,2.8 -6.3,6.3 0,3.5 2.8,6.3 6.3,6.3 h 14.3 c 6.5,0 11.8,5.3 11.8,11.8 v 79.3 c 0,6.5 -5.3,11.8 -11.8,11.8 h -88.6 c -3.5,0 -6.3,2.8 -6.3,6.3 V 234 l -18.1,-20.3 c -1.2,-1.3 -2.9,-2.1 -4.7,-2.1 H 216 c -6.5,0 -11.8,-5.3 -11.8,-11.8 v -79.3 c 0,-6.5 5.3,-11.8 11.8,-11.8 h 122.8 c 3.5,0 6.3,-2.8 6.3,-6.3 0,-3.5 -2.8,-6.3 -6.3,-6.3 H 216 c -13.4,0 -24.3,10.9 -24.3,24.3 v 79.3 c 0,13.4 10.9,24.3 24.3,24.3 h 36.6 l 27.2,30.5 c 1.2,1.4 2.9,2.1 4.7,2.1 0.7,0 1.5,-0.1 2.2,-0.4 2.4,-0.9 4,-3.3 4,-5.9 V 224 H 373 c 13.4,0 24.3,-10.9 24.3,-24.3 V 120.4 C 397.4,106.9 386.5,96 373.1,96 Z"
   style="fill:#000064;fill-opacity:1"
   inkscape:connector-curvature="0" />
	</g>
</g><g
     id="g42"
     style="fill:#000064;fill-opacity:1">
	<g
   id="g40"
   style="fill:#000064;fill-opacity:1">
		<path
   id="path38"
   d="m 305,367.1 c -3.5,0 -6.3,2.8 -6.3,6.3 v 9.7 c 0,3.5 2.8,6.3 6.3,6.3 3.5,0 6.3,-2.8 6.3,-6.3 v -9.7 c -0.1,-3.5 -2.9,-6.3 -6.3,-6.3 z"
   style="fill:#000064;fill-opacity:1"
   inkscape:connector-curvature="0" />
	</g>
</g><g
     id="g48"
     style="fill:#000064;fill-opacity:1">
	<g
   id="g46"
   style="fill:#000064;fill-opacity:1">
		<path
   id="path44"
   d="m 279.7,367.1 c -3.5,0 -6.3,2.8 -6.3,6.3 v 9.7 c 0,3.5 2.8,6.3 6.3,6.3 3.5,0 6.3,-2.8 6.3,-6.3 v -9.7 c 0,-3.5 -2.8,-6.3 -6.3,-6.3 z"
   style="fill:#000064;fill-opacity:1"
   inkscape:connector-curvature="0" />
	</g>
</g><g
     id="g54"
     style="fill:#000064;fill-opacity:1">
	<g
   id="g52"
   style="fill:#000064;fill-opacity:1">
		<path
   id="path50"
   d="m 329.5,407.9 c -3,-1.7 -6.8,-0.7 -8.6,2.3 -3.7,6.5 -10.1,10 -18.9,10.5 -3.5,0.2 -6.1,3.1 -5.9,6.6 0.2,3.3 2.9,5.9 6.3,5.9 0.1,0 0.2,0 0.3,0 13.2,-0.7 23.3,-6.5 29.2,-16.8 1.6,-3 0.6,-6.8 -2.4,-8.5 z"
   style="fill:#000064;fill-opacity:1"
   inkscape:connector-curvature="0" />
	</g>
</g><g
     id="g60"
     style="fill:#000064;fill-opacity:1">
	<g
   id="g58"
   style="fill:#000064;fill-opacity:1">
		<path
   id="path56"
   d="m 416,373.5 c -4,-28.2 -13.7,-48.4 -29.6,-61.7 -2.7,-2.2 -6.6,-1.9 -8.8,0.8 -2.2,2.7 -1.9,6.6 0.8,8.8 13.5,11.3 21.7,28.9 25.2,53.9 5.9,41.8 -7,84.1 -21.9,111.7 -6.3,-3.9 -17,-12.6 -21.7,-27.7 -1,-3.3 -4.6,-5.1 -7.9,-4.1 -3.3,1 -5.1,4.6 -4.1,7.9 8.7,27.6 32.7,37.8 33.8,38.2 0.8,0.3 1.6,0.5 2.4,0.5 2.2,0 4.2,-1.1 5.4,-3.1 17.2,-29.3 33.2,-77.5 26.4,-125.2 z"
   style="fill:#000064;fill-opacity:1"
   inkscape:connector-curvature="0" />
	</g>
</g><g
     id="g66"
     style="fill:#000064;fill-opacity:1">
	<g
   id="g64"
   style="fill:#000064;fill-opacity:1">
		<path
   id="path62"
   d="m 383.3,369.2 c -2.5,-2.5 -5.5,-4.5 -8.8,-5.7 -5.3,-2 -11,-2.2 -16.2,-0.6 v -6.2 c 0,-2 -1,-4 -2.7,-5.1 -1.7,-1.2 -3.8,-1.5 -5.7,-0.8 -0.3,0.1 -32.5,11.2 -53.9,-16.6 -1.1,-1.4 -2.8,-2.3 -4.6,-2.4 -1.8,-0.1 -3.6,0.5 -4.8,1.8 -5.1,5.1 -17.6,7.1 -26.8,7.5 -2.2,-13.3 2.5,-21.3 4.9,-24.4 6.5,-8.5 18.9,-12.8 36.7,-12.8 20.4,0 41.9,0.6 59.6,7.5 3.2,1.3 6.9,-0.3 8.1,-3.6 1.3,-3.2 -0.3,-6.9 -3.6,-8.1 -19.7,-7.7 -42.5,-8.4 -64.2,-8.4 -21.9,0 -37.6,6 -46.6,17.7 -11.2,14.6 -7.9,32.8 -6,40 0.7,2.7 3.1,4.5 5.8,4.6 2.5,0.1 22.5,0.5 35.6,-7.1 13.3,14.4 29,18.3 40.3,19 6,0.3 11.3,-0.2 15.4,-0.9 v 9.1 c 0,2.6 1.6,4.9 3.9,5.8 2.3,0.9 5,0.4 6.8,-1.4 3.5,-3.5 8.8,-4.7 13.5,-2.9 1.6,0.6 3.1,1.6 4.4,2.9 2.4,2.4 3.7,5.6 3.7,9 0,3.4 -1.3,6.6 -3.7,9 -1.4,1.4 -3,2.4 -4.8,3 -2.2,0.8 -3.8,2.7 -4.1,5.1 -3.5,25.8 -25.9,45.3 -52,45.3 C 284.6,449.5 261,426 261,397 v -28.4 c 0,-3.5 -2.8,-6.3 -6.3,-6.3 -3.5,0 -6.3,2.8 -6.3,6.3 V 397 c 0,35.8 29.2,65 65,65 31.1,0 58,-22.4 63.8,-52.6 2.2,-1.2 4.2,-2.6 5.9,-4.4 4.8,-4.8 7.4,-11.1 7.4,-17.8 0.2,-7 -2.4,-13.3 -7.2,-18 z"
   style="fill:#000064;fill-opacity:1"
   inkscape:connector-curvature="0" />
	</g>
</g><text
     id="text68"
     font-size="40"
     transform="translate(222.7985,176.2852)"
     style="font-size:40px;font-family:Montserrat-SemiBold;fill:#000064;fill-opacity:1">HELLO!</text>
<text
     id="text70"
     font-size="64"
     transform="translate(55.0204,221.4261)"
     style="font-size:64px;font-family:KrutiDev030Bold;fill:#000064;fill-opacity:1">ueLrs</text>
</g>
</svg>