<?xml version="1.0" encoding="UTF-8" standalone="no"?>
<!-- Generator: Adobe Illustrator 18.0.0, SVG Export Plug-In . SVG Version: 6.00 Build 0)  -->

<svg
   xmlns:dc="http://purl.org/dc/elements/1.1/"
   xmlns:cc="http://creativecommons.org/ns#"
   xmlns:rdf="http://www.w3.org/1999/02/22-rdf-syntax-ns#"
   xmlns:svg="http://www.w3.org/2000/svg"
   xmlns="http://www.w3.org/2000/svg"
   xmlns:sodipodi="http://sodipodi.sourceforge.net/DTD/sodipodi-0.dtd"
   xmlns:inkscape="http://www.inkscape.org/namespaces/inkscape"
   version="1.1"
   id="Capa_1"
   x="0px"
   y="0px"
   viewBox="0 -13.4 849.48743 849.48743"
   enable-background="new 0 -13.4 512 545"
   xml:space="preserve"
   sodipodi:docname="lodge complaint-01.svg"
   inkscape:version="0.92.4 (5da689c313, 2019-01-14)"
   width="849.48743"
   height="849.48743"><metadata
   id="metadata33"><rdf:RDF><cc:Work
       rdf:about=""><dc:format>image/svg+xml</dc:format><dc:type
         rdf:resource="http://purl.org/dc/dcmitype/StillImage" /><dc:title /></cc:Work></rdf:RDF></metadata><defs
   id="defs31" /><sodipodi:namedview
   pagecolor="#ffffff"
   bordercolor="#666666"
   borderopacity="1"
   objecttolerance="10"
   gridtolerance="10"
   guidetolerance="10"
   inkscape:pageopacity="0"
   inkscape:pageshadow="2"
   inkscape:window-width="1920"
   inkscape:window-height="1001"
   id="namedview29"
   showgrid="false"
   inkscape:zoom="0.43302752"
   inkscape:cx="623.61666"
   inkscape:cy="328.3581"
   inkscape:window-x="-9"
   inkscape:window-y="-9"
   inkscape:window-maximized="1"
   inkscape:current-layer="Capa_1"
   showborder="false"
   fit-margin-top="0"
   fit-margin-left="0"
   fit-margin-right="0"
   fit-margin-bottom="0" />

<g
   id="g5761"
   inkscape:export-xdpi="50.200001"
   inkscape:export-ydpi="50.200001"><g
     inkscape:export-ydpi="50"
     inkscape:export-xdpi="50"
     transform="matrix(0.51070703,0,0,0.51022992,558.15228,536.46146)"
     id="g5788"><g
       id="g26"
       style="fill:#000080"
       transform="translate(-902.00002,-103.28558)">
	<path
   d="M 117.7,100 H 46 c -5.5,0 -10,4.5 -10,10 v 392 c 0,5.5 4.5,10 10,10 h 95 c 5.5,0 10,-4.5 10,-10 0,-5.5 -4.5,-10 -10,-10 H 56 V 120 h 60 v 10 c 0,5.5 4.5,10 10,10 h 120 c 5.5,0 10,-4.5 10,-10 v -10 h 60 v 372 h -85 c -5.5,0 -10,4.5 -10,10 0,5.5 4.5,10 10,10 h 95 c 5.5,0 10,-4.5 10,-10 V 110 c 0,-5.5 -4.5,-10 -10,-10 h -71.7 c -4,-11.3 -14.6,-19.5 -27.2,-20 1.2,-2.7 2.4,-5.4 3.7,-8 3.4,-6.9 5.2,-14.3 5.2,-22 0,-27.6 -22.4,-50 -50,-50 -27.6,0 -50,22.4 -50,50 0,7.7 1.7,15.1 5.2,22 1.3,2.6 2.5,5.3 3.7,8 -12.6,0.5 -23.2,8.7 -27.2,20 z m 28.3,0 h 13.5 c 6.9,0 11.7,-6.8 9.5,-13.2 -2.8,-8.2 -6.1,-16.2 -9.8,-23.6 C 157,59 156,54.6 156,50 c 0,-16.5 13.5,-30 30,-30 16.5,0 30,13.5 30,30 0,4.6 -1,9 -3.1,13.1 -3.7,7.4 -7,15.4 -9.9,23.7 -2.2,6.5 2.6,13.2 9.5,13.2 H 226 c 5.5,0 10,4.5 10,10 v 10 H 136 v -10 c 0,-5.5 4.5,-10 10,-10 z"
   id="path2"
   style="fill:#000080"
   inkscape:connector-curvature="0" />
	<path
   d="m 186,206 h 100 c 5.5,0 10,-4.5 10,-10 0,-5.5 -4.5,-10 -10,-10 H 186 c -5.5,0 -10,4.5 -10,10 0,5.5 4.5,10 10,10 z"
   id="path4"
   style="fill:#000080"
   inkscape:connector-curvature="0" />
	<path
   d="m 186,246 h 60 c 5.5,0 10,-4.5 10,-10 0,-5.5 -4.5,-10 -10,-10 h -60 c -5.5,0 -10,4.5 -10,10 0,5.5 4.5,10 10,10 z"
   id="path6"
   style="fill:#000080"
   inkscape:connector-curvature="0" />
	<path
   d="m 186,306 h 100 c 5.5,0 10,-4.5 10,-10 0,-5.5 -4.5,-10 -10,-10 H 186 c -5.5,0 -10,4.5 -10,10 0,5.5 4.5,10 10,10 z"
   id="path8"
   style="fill:#000080"
   inkscape:connector-curvature="0" />
	<path
   d="m 186,346 h 60 c 5.5,0 10,-4.5 10,-10 0,-5.5 -4.5,-10 -10,-10 h -60 c -5.5,0 -10,4.5 -10,10 0,5.5 4.5,10 10,10 z"
   id="path10"
   style="fill:#000080"
   inkscape:connector-curvature="0" />
	<path
   d="m 186,406 h 100 c 5.5,0 10,-4.5 10,-10 0,-5.5 -4.5,-10 -10,-10 H 186 c -5.5,0 -10,4.5 -10,10 0,5.5 4.5,10 10,10 z"
   id="path12"
   style="fill:#000080"
   inkscape:connector-curvature="0" />
	<path
   d="m 186,446 h 60 c 5.5,0 10,-4.5 10,-10 0,-5.5 -4.5,-10 -10,-10 h -60 c -5.5,0 -10,4.5 -10,10 0,5.5 4.5,10 10,10 z"
   id="path14"
   style="fill:#000080"
   inkscape:connector-curvature="0" />
	<path
   d="m 98.9,243.1 c 2,2 4.5,2.9 7.1,2.9 2.6,0 5.1,-1 7.1,-2.9 l 40,-40 c 3.9,-3.9 3.9,-10.2 0,-14.1 -3.9,-3.9 -10.2,-3.9 -14.1,0 L 106,221.9 93.1,209 c -3.9,-3.9 -10.2,-3.9 -14.1,0 -3.9,3.9 -3.9,10.2 0,14.1 z"
   id="path16"
   style="fill:#000080"
   inkscape:connector-curvature="0" />
	<path
   d="m 78.9,323.1 20,20 c 2,2 4.5,2.9 7.1,2.9 2.6,0 5.1,-1 7.1,-2.9 l 40,-40 c 3.9,-3.9 3.9,-10.2 0,-14.1 -3.9,-3.9 -10.2,-3.9 -14.1,0 L 106,321.9 93.1,309 c -3.9,-3.9 -10.2,-3.9 -14.1,0 -4,3.8 -4,10.2 -0.1,14.1 z"
   id="path18"
   style="fill:#000080"
   inkscape:connector-curvature="0" />
	<path
   d="m 78.9,423.1 20,20 c 2,2 4.5,2.9 7.1,2.9 2.6,0 5.1,-1 7.1,-2.9 l 40,-40 c 3.9,-3.9 3.9,-10.2 0,-14.1 -3.9,-3.9 -10.2,-3.9 -14.1,0 L 106,421.9 93.1,409 c -3.9,-3.9 -10.2,-3.9 -14.1,0 -4,3.8 -4,10.2 -0.1,14.1 z"
   id="path20"
   style="fill:#000080"
   inkscape:connector-curvature="0" />
	<path
   d="m 386,100 c -5.5,0 -10,4.5 -10,10 v 10 h -10 c -5.5,0 -10,4.5 -10,10 v 332 c 0,2.7 1.1,5.2 2.9,7.1 L 376,486.2 V 502 c 0,5.5 4.5,10 10,10 5.5,0 10,-4.5 10,-10 V 486.1 L 413.1,469 c 1.9,-1.9 2.9,-4.4 2.9,-7.1 0,-9.4 0,-301 0,-320.3 11.6,4.1 20,15.2 20,28.3 v 106 c 0,5.5 4.5,10 10,10 h 20 c 5.5,0 10,-4.5 10,-10 0,-5.5 -4.5,-10 -10,-10 h -10 v -96 c 0,-27.6 -22.4,-50 -50,-50 h -10 v -10 c 0,-5.4 -4.5,-9.9 -10,-9.9 z m -10,40 h 20 v 126 h -20 z m 10,327.9 -10,-10 V 286 h 20 v 171.9 z"
   id="path22"
   style="fill:#000080"
   inkscape:connector-curvature="0" />
	<circle
   cx="186"
   cy="502"
   r="10"
   id="circle24"
   style="fill:#000080" />
</g><circle
       style="opacity:0.1;fill:#000080;fill-opacity:1;stroke:#000000;stroke-width:2.76313114;stroke-opacity:1"
       id="path5764"
       cx="-603.12488"
       cy="330.06119"
       r="423.36121"
       transform="rotate(15)" /></g></g></svg>