<?xml version="1.0" encoding="utf-8"?>
<!-- Generator: Adobe Illustrator 18.0.0, SVG Export Plug-In . SVG Version: 6.00 Build 0)  -->
<!DOCTYPE svg PUBLIC "-//W3C//DTD SVG 1.1//EN" "http://www.w3.org/Graphics/SVG/1.1/DTD/svg11.dtd">
<svg version="1.1" id="Capa_1" xmlns="http://www.w3.org/2000/svg" xmlns:xlink="http://www.w3.org/1999/xlink" x="0px" y="0px"
	 viewBox="0 -13.4 512 545" enable-background="new 0 -13.4 512 545" xml:space="preserve">
<g>
	<path d="M117.7,100H46c-5.5,0-10,4.5-10,10v392c0,5.5,4.5,10,10,10h95c5.5,0,10-4.5,10-10s-4.5-10-10-10H56V120h60v10
		c0,5.5,4.5,10,10,10h120c5.5,0,10-4.5,10-10v-10h60v372h-85c-5.5,0-10,4.5-10,10s4.5,10,10,10h95c5.5,0,10-4.5,10-10V110
		c0-5.5-4.5-10-10-10h-71.7c-4-11.3-14.6-19.5-27.2-20c1.2-2.7,2.4-5.4,3.7-8c3.4-6.9,5.2-14.3,5.2-22c0-27.6-22.4-50-50-50
		s-50,22.4-50,50c0,7.7,1.7,15.1,5.2,22c1.3,2.6,2.5,5.3,3.7,8C132.3,80.5,121.7,88.7,117.7,100L117.7,100z M146,100h13.5
		c6.9,0,11.7-6.8,9.5-13.2c-2.8-8.2-6.1-16.2-9.8-23.6C157,59,156,54.6,156,50c0-16.5,13.5-30,30-30s30,13.5,30,30
		c0,4.6-1,9-3.1,13.1c-3.7,7.4-7,15.4-9.9,23.7c-2.2,6.5,2.6,13.2,9.5,13.2H226c5.5,0,10,4.5,10,10v10H136v-10
		C136,104.5,140.5,100,146,100L146,100z"/>
	<path d="M186,206h100c5.5,0,10-4.5,10-10s-4.5-10-10-10H186c-5.5,0-10,4.5-10,10S180.5,206,186,206z"/>
	<path d="M186,246h60c5.5,0,10-4.5,10-10s-4.5-10-10-10h-60c-5.5,0-10,4.5-10,10S180.5,246,186,246z"/>
	<path d="M186,306h100c5.5,0,10-4.5,10-10s-4.5-10-10-10H186c-5.5,0-10,4.5-10,10S180.5,306,186,306z"/>
	<path d="M186,346h60c5.5,0,10-4.5,10-10s-4.5-10-10-10h-60c-5.5,0-10,4.5-10,10S180.5,346,186,346z"/>
	<path d="M186,406h100c5.5,0,10-4.5,10-10s-4.5-10-10-10H186c-5.5,0-10,4.5-10,10S180.5,406,186,406z"/>
	<path d="M186,446h60c5.5,0,10-4.5,10-10s-4.5-10-10-10h-60c-5.5,0-10,4.5-10,10S180.5,446,186,446z"/>
	<path d="M98.9,243.1c2,2,4.5,2.9,7.1,2.9s5.1-1,7.1-2.9l40-40c3.9-3.9,3.9-10.2,0-14.1c-3.9-3.9-10.2-3.9-14.1,0L106,221.9
		l-12.9-12.9c-3.9-3.9-10.2-3.9-14.1,0c-3.9,3.9-3.9,10.2,0,14.1L98.9,243.1z"/>
	<path d="M78.9,323.1l20,20c2,2,4.5,2.9,7.1,2.9s5.1-1,7.1-2.9l40-40c3.9-3.9,3.9-10.2,0-14.1c-3.9-3.9-10.2-3.9-14.1,0L106,321.9
		l-12.9-12.9c-3.9-3.9-10.2-3.9-14.1,0C75,312.8,75,319.2,78.9,323.1z"/>
	<path d="M78.9,423.1l20,20c2,2,4.5,2.9,7.1,2.9s5.1-1,7.1-2.9l40-40c3.9-3.9,3.9-10.2,0-14.1c-3.9-3.9-10.2-3.9-14.1,0L106,421.9
		l-12.9-12.9c-3.9-3.9-10.2-3.9-14.1,0C75,412.8,75,419.2,78.9,423.1z"/>
	<path d="M386,100c-5.5,0-10,4.5-10,10v10h-10c-5.5,0-10,4.5-10,10v332c0,2.7,1.1,5.2,2.9,7.1l17.1,17.1V502c0,5.5,4.5,10,10,10
		s10-4.5,10-10v-15.9l17.1-17.1c1.9-1.9,2.9-4.4,2.9-7.1c0-9.4,0-301,0-320.3c11.6,4.1,20,15.2,20,28.3v106c0,5.5,4.5,10,10,10h20
		c5.5,0,10-4.5,10-10s-4.5-10-10-10h-10v-96c0-27.6-22.4-50-50-50h-10v-10C396,104.5,391.5,100,386,100L386,100z M376,140h20v126
		h-20V140z M386,467.9l-10-10V286h20v171.9L386,467.9z"/>
	<circle cx="186" cy="502" r="10"/>
</g>
</svg>
