<?xml version="1.0" encoding="utf-8"?>
<!-- Generator: Adobe Illustrator 18.0.0, SVG Export Plug-In . SVG Version: 6.00 Build 0)  -->
<!DOCTYPE svg PUBLIC "-//W3C//DTD SVG 1.1//EN" "http://www.w3.org/Graphics/SVG/1.1/DTD/svg11.dtd">
<svg version="1.1" id="_x33_0" xmlns="http://www.w3.org/2000/svg" xmlns:xlink="http://www.w3.org/1999/xlink" x="0px" y="0px"
	 viewBox="0 0 325.6 512" enable-background="new 0 0 325.6 512" xml:space="preserve">
<path d="M312,40V24c0-8.8-7.2-16-16-16H75.3C71,8,67,9.7,64,12.7L12.7,64C9.7,67,8,71,8,75.3V488c0,8.8,7.2,16,16,16h272
	c8.8,0,16-7.2,16-16V40z M64,35.3V64H35.3L64,35.3z M24,488V80h56V24h216v464H24z"/>
<path d="M216,280H40v64h176V280z M200,328H56v-32h144V328z"/>
<path d="M40,364.4h176v14.2H40V364.4z"/>
<path d="M40,392.9h208v14.2H40V392.9z"/>
<path d="M40,421.4h208v14.2H40V421.4z"/>
<path d="M40,458.4h48v11.2H40V458.4z"/>
<path d="M104,458.4h48v11.2h-48V458.4z"/>
<path d="M168,458.4h48v11.2h-48V458.4z"/>
<path d="M160,56c-57.3,0-104,46.7-104,104s46.7,104,104,104s104-46.7,104-104S217.3,56,160,56z M160,248c-25,0-47.6-10.6-63.6-27.4
	c5.9-10.1,14.1-18.6,23.7-24.8l39.9,39.4l39.9-39.4c9.7,6.2,17.8,14.7,23.7,24.8C207.6,237.4,185,248,160,248L160,248z M128,136
	c0-17.6,14.4-32,32-32s32,14.4,32,32s-14.4,32-32,32S128,153.6,128,136z M135.4,188.5c7.8-2.8,16.1-4.5,24.6-4.5s16.8,1.7,24.6,4.5
	L160,212.8L135.4,188.5z M234.2,207.1c-10.8-15.6-26.3-27.5-44-33.8C201,164.5,208,151,208,136c0-26.5-21.5-48-48-48s-48,21.5-48,48
	c0,15,7,28.5,17.8,37.3c-17.7,6.4-33.3,18.2-44,33.8C77.1,193.5,72,177.3,72,160c0-48.5,39.5-88,88-88s88,39.5,88,88
	C248,177.3,242.9,193.5,234.2,207.1L234.2,207.1z"/>
</svg>
