<?xml version="1.0" encoding="UTF-8" standalone="no"?>
<!-- Generator: Adobe Illustrator 18.0.0, SVG Export Plug-In . SVG Version: 6.00 Build 0)  -->

<svg
   xmlns:dc="http://purl.org/dc/elements/1.1/"
   xmlns:cc="http://creativecommons.org/ns#"
   xmlns:rdf="http://www.w3.org/1999/02/22-rdf-syntax-ns#"
   xmlns:svg="http://www.w3.org/2000/svg"
   xmlns="http://www.w3.org/2000/svg"
   xmlns:sodipodi="http://sodipodi.sourceforge.net/DTD/sodipodi-0.dtd"
   xmlns:inkscape="http://www.inkscape.org/namespaces/inkscape"
   version="1.1"
   id="_x33_0"
   x="0px"
   y="0px"
   viewBox="0 0 433.9389 433.77426"
   enable-background="new 0 0 325.6 512"
   xml:space="preserve"
   sodipodi:docname="my complaint-01.svg"
   inkscape:version="0.92.4 (5da689c313, 2019-01-14)"
   width="433.9389"
   height="433.77426"
   inkscape:export-filename="F:\guhaar\assets\images\my-complaint.png"
   inkscape:export-xdpi="50"
   inkscape:export-ydpi="50"><metadata
   id="metadata25"><rdf:RDF><cc:Work
       rdf:about=""><dc:format>image/svg+xml</dc:format><dc:type
         rdf:resource="http://purl.org/dc/dcmitype/StillImage" /><dc:title></dc:title></cc:Work></rdf:RDF></metadata><defs
   id="defs23" /><sodipodi:namedview
   pagecolor="#ffffff"
   bordercolor="#666666"
   borderopacity="1"
   objecttolerance="10"
   gridtolerance="10"
   guidetolerance="10"
   inkscape:pageopacity="0"
   inkscape:pageshadow="2"
   inkscape:window-width="1920"
   inkscape:window-height="1001"
   id="namedview21"
   showgrid="false"
   inkscape:zoom="0.4609375"
   inkscape:cx="925.8458"
   inkscape:cy="332.47421"
   inkscape:window-x="-9"
   inkscape:window-y="-9"
   inkscape:window-maximized="1"
   inkscape:current-layer="_x33_0"
   showborder="false"
   fit-margin-top="0"
   fit-margin-left="0"
   fit-margin-right="0"
   fit-margin-bottom="0" />









<g
   id="g5836"
   inkscape:export-xdpi="50"
   inkscape:export-ydpi="50"><g
     id="g5819"><g
       id="g5803"><g
         transform="matrix(0.53103776,0,0,0.53083632,542.89614,121.41305)"
         id="g5788"><g
           id="g5761"
           style="fill:#ffcc00"
           transform="translate(-14.432242,-0.21183997)"><g
             id="g5774"
             transform="translate(-759.32203,-75.932203)"><path
               style="fill:#ffcc00"
               d="M 312,40 V 24 C 312,15.2 304.8,8 296,8 H 75.3 C 71,8 67,9.7 64,12.7 L 12.7,64 C 9.7,67 8,71 8,75.3 V 488 c 0,8.8 7.2,16 16,16 h 272 c 8.8,0 16,-7.2 16,-16 z M 64,35.3 V 64 H 35.3 Z M 24,488 V 80 H 80 V 24 h 216 v 464 z"
               id="path2"
               inkscape:connector-curvature="0" /><path
               style="fill:#ffcc00"
               d="M 216,280 H 40 v 64 h 176 z m -16,48 H 56 v -32 h 144 z"
               id="path4"
               inkscape:connector-curvature="0" /><path
               style="fill:#ffcc00"
               d="m 40,364.4 h 176 v 14.2 H 40 Z"
               id="path6"
               inkscape:connector-curvature="0" /><path
               style="fill:#ffcc00"
               d="m 40,392.9 h 208 v 14.2 H 40 Z"
               id="path8"
               inkscape:connector-curvature="0" /><path
               style="fill:#ffcc00"
               d="m 40,421.4 h 208 v 14.2 H 40 Z"
               id="path10"
               inkscape:connector-curvature="0" /><path
               style="fill:#ffcc00"
               d="m 40,458.4 h 48 v 11.2 H 40 Z"
               id="path12"
               inkscape:connector-curvature="0" /><path
               style="fill:#ffcc00"
               d="m 104,458.4 h 48 v 11.2 h -48 z"
               id="path14"
               inkscape:connector-curvature="0" /><path
               style="fill:#ffcc00"
               d="m 168,458.4 h 48 v 11.2 h -48 z"
               id="path16"
               inkscape:connector-curvature="0" /><path
               style="fill:#ffcc00"
               d="m 160,56 c -57.3,0 -104,46.7 -104,104 0,57.3 46.7,104 104,104 57.3,0 104,-46.7 104,-104 C 264,102.7 217.3,56 160,56 Z m 0,192 c -25,0 -47.6,-10.6 -63.6,-27.4 5.9,-10.1 14.1,-18.6 23.7,-24.8 l 39.9,39.4 39.9,-39.4 c 9.7,6.2 17.8,14.7 23.7,24.8 C 207.6,237.4 185,248 160,248 Z M 128,136 c 0,-17.6 14.4,-32 32,-32 17.6,0 32,14.4 32,32 0,17.6 -14.4,32 -32,32 -17.6,0 -32,-14.4 -32,-32 z m 7.4,52.5 c 7.8,-2.8 16.1,-4.5 24.6,-4.5 8.5,0 16.8,1.7 24.6,4.5 L 160,212.8 Z m 98.8,18.6 C 223.4,191.5 207.9,179.6 190.2,173.3 201,164.5 208,151 208,136 c 0,-26.5 -21.5,-48 -48,-48 -26.5,0 -48,21.5 -48,48 0,15 7,28.5 17.8,37.3 -17.7,6.4 -33.3,18.2 -44,33.8 C 77.1,193.5 72,177.3 72,160 c 0,-48.5 39.5,-88 88,-88 48.5,0 88,39.5 88,88 0,17.3 -5.1,33.5 -13.8,47.1 z"
               id="path18"
               inkscape:connector-curvature="0" /></g></g><ellipse
           style="opacity:0.1;fill:#ffcc00;fill-opacity:1;stroke:#000000;stroke-width:1.13997865;stroke-opacity:1"
           id="path5763"
           cx="-613.75427"
           cy="179.85596"
           rx="408.00632"
           ry="408.00629" /></g></g></g></g></svg>