<?xml version="1.0" encoding="UTF-8" standalone="no"?>
<!-- Generator: Adobe Illustrator 18.0.0, SVG Export Plug-In . SVG Version: 6.00 Build 0)  -->

<svg
   xmlns:dc="http://purl.org/dc/elements/1.1/"
   xmlns:cc="http://creativecommons.org/ns#"
   xmlns:rdf="http://www.w3.org/1999/02/22-rdf-syntax-ns#"
   xmlns:svg="http://www.w3.org/2000/svg"
   xmlns="http://www.w3.org/2000/svg"
   xmlns:sodipodi="http://sodipodi.sourceforge.net/DTD/sodipodi-0.dtd"
   xmlns:inkscape="http://www.inkscape.org/namespaces/inkscape"
   version="1.1"
   id="Capa_1"
   x="0px"
   y="0px"
   viewBox="0 97.3 433.99997 433.99999"
   enable-background="new 0 97.3 512 414.7"
   xml:space="preserve"
   sodipodi:docname="public service-01.svg"
   inkscape:version="0.92.4 (5da689c313, 2019-01-14)"
   width="433.99997"
   height="434"><metadata
   id="metadata13"><rdf:RDF><cc:Work
       rdf:about=""><dc:format>image/svg+xml</dc:format><dc:type
         rdf:resource="http://purl.org/dc/dcmitype/StillImage" /><dc:title></dc:title></cc:Work></rdf:RDF></metadata><defs
   id="defs11" /><sodipodi:namedview
   pagecolor="#ffffff"
   bordercolor="#666666"
   borderopacity="1"
   objecttolerance="10"
   gridtolerance="10"
   guidetolerance="10"
   inkscape:pageopacity="0"
   inkscape:pageshadow="2"
   inkscape:window-width="1920"
   inkscape:window-height="1001"
   id="namedview9"
   showgrid="false"
   inkscape:zoom="0.56908607"
   inkscape:cx="835.49848"
   inkscape:cy="64.026302"
   inkscape:window-x="-9"
   inkscape:window-y="-9"
   inkscape:window-maximized="1"
   inkscape:current-layer="Capa_1"
   showborder="false"
   fit-margin-top="0"
   fit-margin-left="0"
   fit-margin-right="0"
   fit-margin-bottom="0" />



<g
   id="g5752"
   transform="translate(789.48429,-357.24169)"
   inkscape:export-xdpi="50"
   inkscape:export-ydpi="50"><g
     transform="matrix(0.56549086,0,0,0.56549091,-717.36573,490.51812)"
     style="fill:#ff6600"
     id="g5743"><path
       inkscape:connector-curvature="0"
       style="fill:#ff6600"
       d="m 73,474 c -10.7,0 -20.6,0 -30.6,0 -18.5,0 -31.8,-12.4 -31.8,-29.6 0,-17 13.6,-30.1 31.6,-30.1 142.5,0 284.9,0 427.4,0 13.6,0 23.7,6.3 29.4,18.6 5,10.9 3.2,21.3 -4.4,30.5 -5.9,7.2 -13.8,10.5 -23.1,10.6 -10.5,0.1 -21,0 -32.5,0 0,2.5 0,4.7 0,6.9 0,52.3 0,-36.4 0,15.9 0,11.4 -3.7,15.2 -15,15.2 -112.1,0 -224.2,0 -336.3,0 -11,0 -14.7,-3.8 -14.7,-14.9 0,-52.1 0,36.8 0,-15.4 0,-2.2 0,-4.5 0,-7.7 z"
       id="path2" /><path
       inkscape:connector-curvature="0"
       style="fill:#ff6600"
       d="m 256.4,333.7 c 11.9,-11.9 23.4,-23.3 34.7,-35 2.6,-2.7 4.6,-3.3 8.2,-1.8 14.6,6.1 29.4,11.8 44.2,17.6 20.4,7.9 33.6,21.4 36,44.2 0.9,8.8 3.3,17.5 4.9,26.3 1.3,7.1 -0.5,9.2 -7.6,9.2 -80.5,0 -161,0 -241.5,0 -6.8,0 -8.7,-2.2 -7.5,-8.9 2.1,-11.6 4.5,-23.1 6.6,-34.7 2.8,-14.9 11.6,-25.4 24.9,-31.5 18.3,-8.3 37.2,-15.5 55.9,-22.8 1.3,-0.5 3.9,0.7 5.2,1.9 10.7,10.5 21.3,21.1 31.9,31.7 1.2,1.2 2.4,2.2 4.1,3.8 z"
       id="path4" /><path
       inkscape:connector-curvature="0"
       style="fill:#ff6600"
       d="m 284.2,275.8 c 1.2,-1.4 2,-2.5 3,-3.3 11.5,-9.8 17.4,-22.4 17.7,-37.5 0.3,-12.1 0.2,-24.3 -0.1,-36.4 0,-1.7 -1.8,-4.1 -3.4,-4.8 -8.8,-3.9 -17.7,-7.5 -26.7,-10.9 -1.8,-0.7 -4.5,-0.4 -6.2,0.5 -13.9,7.5 -28.1,13.9 -43.9,16 -5.5,0.7 -11,1 -17.3,1.5 0,6.3 -0.1,12.5 0,18.6 0.2,8.4 0,16.8 1.2,25 1.5,10.8 7.3,19.6 15.5,26.7 1.3,1.1 3.2,1.5 4.8,2.2 -0.6,0.9 -1.3,1.9 -1.9,2.8 -5,-0.5 -10.1,-0.6 -15,-1.6 -11.9,-2.5 -23.7,-5.1 -35.4,-8.1 -8.7,-2.2 -11.7,-8.2 -8.8,-16.7 8.6,-25.7 17,-51.4 26,-76.9 10,-28.3 35.1,-45.3 65,-44.6 0.9,0 1.9,-0.2 2.7,0.1 11.9,4.6 24.4,8 35.4,14.1 10.6,5.9 17,16.8 21,28.3 9.4,26.7 18.3,53.6 27.3,80.4 2.2,6.5 -0.5,13.3 -6.8,14.8 -17.3,4.1 -34.8,7.3 -52.2,10.8 -0.3,0 -0.7,-0.4 -1.9,-1 z"
       id="path6" /></g><ellipse
     ry="216.6281"
     rx="216.62808"
     cy="671.54169"
     cx="-572.48431"
     id="path5745"
     style="opacity:0.1;fill:#ff6600;fill-opacity:1;stroke:#000000;stroke-width:0.74379224;stroke-opacity:1" /></g></svg>