<?xml version="1.0" encoding="utf-8"?>
<!-- Generator: Adobe Illustrator 18.0.0, SVG Export Plug-In . SVG Version: 6.00 Build 0)  -->
<!DOCTYPE svg PUBLIC "-//W3C//DTD SVG 1.1//EN" "http://www.w3.org/Graphics/SVG/1.1/DTD/svg11.dtd">
<svg version="1.1" id="Capa_1" xmlns="http://www.w3.org/2000/svg" xmlns:xlink="http://www.w3.org/1999/xlink" x="0px" y="0px"
	 viewBox="0 97.3 512 414.7" enable-background="new 0 97.3 512 414.7" xml:space="preserve">
<path d="M73,474c-10.7,0-20.6,0-30.6,0c-18.5,0-31.8-12.4-31.8-29.6c0-17,13.6-30.1,31.6-30.1c142.5,0,284.9,0,427.4,0
	c13.6,0,23.7,6.3,29.4,18.6c5,10.9,3.2,21.3-4.4,30.5c-5.9,7.2-13.8,10.5-23.1,10.6c-10.5,0.1-21,0-32.5,0c0,2.5,0,4.7,0,6.9
	c0,52.3,0-36.4,0,15.9c0,11.4-3.7,15.2-15,15.2c-112.1,0-224.2,0-336.3,0c-11,0-14.7-3.8-14.7-14.9c0-52.1,0,36.8,0-15.4
	C73,479.5,73,477.2,73,474z"/>
<path d="M256.4,333.7c11.9-11.9,23.4-23.3,34.7-35c2.6-2.7,4.6-3.3,8.2-1.8c14.6,6.1,29.4,11.8,44.2,17.6
	c20.4,7.9,33.6,21.4,36,44.2c0.9,8.8,3.3,17.5,4.9,26.3c1.3,7.1-0.5,9.2-7.6,9.2c-80.5,0-161,0-241.5,0c-6.8,0-8.7-2.2-7.5-8.9
	c2.1-11.6,4.5-23.1,6.6-34.7c2.8-14.9,11.6-25.4,24.9-31.5c18.3-8.3,37.2-15.5,55.9-22.8c1.3-0.5,3.9,0.7,5.2,1.9
	c10.7,10.5,21.3,21.1,31.9,31.7C253.5,331.1,254.7,332.1,256.4,333.7z"/>
<path d="M284.2,275.8c1.2-1.4,2-2.5,3-3.3c11.5-9.8,17.4-22.4,17.7-37.5c0.3-12.1,0.2-24.3-0.1-36.4c0-1.7-1.8-4.1-3.4-4.8
	c-8.8-3.9-17.7-7.5-26.7-10.9c-1.8-0.7-4.5-0.4-6.2,0.5c-13.9,7.5-28.1,13.9-43.9,16c-5.5,0.7-11,1-17.3,1.5c0,6.3-0.1,12.5,0,18.6
	c0.2,8.4,0,16.8,1.2,25c1.5,10.8,7.3,19.6,15.5,26.7c1.3,1.1,3.2,1.5,4.8,2.2c-0.6,0.9-1.3,1.9-1.9,2.8c-5-0.5-10.1-0.6-15-1.6
	c-11.9-2.5-23.7-5.1-35.4-8.1c-8.7-2.2-11.7-8.2-8.8-16.7c8.6-25.7,17-51.4,26-76.9c10-28.3,35.1-45.3,65-44.6
	c0.9,0,1.9-0.2,2.7,0.1c11.9,4.6,24.4,8,35.4,14.1c10.6,5.9,17,16.8,21,28.3c9.4,26.7,18.3,53.6,27.3,80.4
	c2.2,6.5-0.5,13.3-6.8,14.8c-17.3,4.1-34.8,7.3-52.2,10.8C285.8,276.8,285.4,276.4,284.2,275.8z"/>
</svg>
