<?xml version="1.0" encoding="UTF-8" standalone="no"?>
<!-- Generator: Adobe Illustrator 18.0.0, SVG Export Plug-In . SVG Version: 6.00 Build 0)  -->

<svg
   xmlns:dc="http://purl.org/dc/elements/1.1/"
   xmlns:cc="http://creativecommons.org/ns#"
   xmlns:rdf="http://www.w3.org/1999/02/22-rdf-syntax-ns#"
   xmlns:svg="http://www.w3.org/2000/svg"
   xmlns="http://www.w3.org/2000/svg"
   xmlns:sodipodi="http://sodipodi.sourceforge.net/DTD/sodipodi-0.dtd"
   xmlns:inkscape="http://www.inkscape.org/namespaces/inkscape"
   version="1.1"
   id="Capa_1"
   x="0px"
   y="0px"
   viewBox="54.6 131.6 774.83742 434.03802"
   enable-background="new 54.6 131.6 308.4 321"
   xml:space="preserve"
   sodipodi:docname="rejected complaint-01.svg"
   width="774.8374"
   height="434.03802"
   inkscape:version="0.92.4 (5da689c313, 2019-01-14)"><metadata
   id="metadata19"><rdf:RDF><cc:Work
       rdf:about=""><dc:format>image/svg+xml</dc:format><dc:type
         rdf:resource="http://purl.org/dc/dcmitype/StillImage" /><dc:title></dc:title></cc:Work></rdf:RDF></metadata><defs
   id="defs17" /><sodipodi:namedview
   pagecolor="#ffffff"
   bordercolor="#666666"
   borderopacity="1"
   objecttolerance="10"
   gridtolerance="10"
   guidetolerance="10"
   inkscape:pageopacity="0"
   inkscape:pageshadow="2"
   inkscape:window-width="1920"
   inkscape:window-height="1001"
   id="namedview15"
   showgrid="false"
   showborder="false"
   fit-margin-top="0"
   fit-margin-left="0"
   fit-margin-right="0"
   fit-margin-bottom="0"
   inkscape:zoom="0.73520249"
   inkscape:cx="699.44706"
   inkscape:cy="12.742284"
   inkscape:window-x="-9"
   inkscape:window-y="-9"
   inkscape:window-maximized="1"
   inkscape:current-layer="Capa_1" />
<g
   id="g6"
   style="fill:#d40000"
   transform="rotate(-165.76304,484.2982,295.03708)">
	<g
   id="g4"
   style="fill:#d40000">
		<path
   d="m 114.8,200.5 c -4.5,0 -8.2,3.7 -8.2,8.2 v 0.1 c 0,4.5 3.7,8.2 8.2,8.2 4.5,0 8.2,-3.7 8.2,-8.2 v -0.1 c 0,-4.5 -3.7,-8.2 -8.2,-8.2 z"
   id="path2"
   style="fill:#d40000"
   inkscape:connector-curvature="0" />
	</g>
</g>

<g
   id="g5767"
   inkscape:export-xdpi="50.200001"
   inkscape:export-ydpi="50.200001"><g
     transform="matrix(1.084996,0,0,1.085095,741.16982,42.987305)"
     id="g5759"><g
       id="g5752"><g
         transform="translate(-628.39831,-8.1610169)"
         style="fill:#d40000"
         id="g12">
	<g
   style="fill:#d40000"
   id="g10">
		<path
   inkscape:connector-curvature="0"
   style="fill:#d40000"
   id="path8"
   d="m 321.3,241.1 c 0,-13.5 -10.4,-24.7 -23.6,-25.8 1.2,-3 1.9,-6.3 1.9,-9.7 v -0.3 C 299.6,191 288,179.4 273.7,179.4 H 159.8 c -1,0 -2,0.2 -3,0.6 l -13.4,5.2 c -0.2,-4.3 -3.8,-7.8 -8.1,-7.8 H 92.9 c -4.5,0 -8.2,3.7 -8.2,8.2 V 329 c 0,4.5 3.7,8.2 8.2,8.2 h 42.4 c 2.5,0 4.7,-1.1 6.2,-2.8 l 71.7,86.7 c 1.5,1.9 3.8,2.9 6.2,3 0,0 0,0 0.1,0 2.4,0 4.6,-1 6.2,-2.9 l 3.1,-3.6 c 12.9,-15.1 15.7,-36.4 7.3,-54.3 l -11.4,-24 h 48.8 c 14.3,0 25.9,-11.6 25.9,-25.9 v -0.3 c 0,-3.4 -0.7,-6.7 -1.9,-9.7 13.2,-1.2 23.6,-12.3 23.6,-25.8 V 277 c 0,-6.9 -2.7,-13.1 -7.1,-17.8 4.4,-4.6 7.1,-10.9 7.1,-17.8 v -0.3 z m -194.1,72 c -0.1,0.6 -0.1,1.2 0,1.8 v 6 H 101.1 V 193.6 h 26.1 z m 177.7,-71.7 c 0,5.3 -4.3,9.6 -9.6,9.6 h -54.5 c -4.5,0 -8.2,3.7 -8.2,8.2 0,4.5 3.7,8.2 8.2,8.2 h 54.5 c 5.3,0 9.6,4.3 9.6,9.6 v 0.3 c 0,5.3 -4.3,9.6 -9.6,9.6 h -54.5 c -4.5,0 -8.2,3.7 -8.2,8.2 0,4.5 3.7,8.2 8.2,8.2 h 32.7 c 5.3,0 9.6,4.3 9.6,9.6 v 0.3 c 0,5.3 -4.3,9.6 -9.6,9.6 h -61.7 c -2.8,0 -5.4,1.4 -6.9,3.8 -1.5,2.4 -1.7,5.3 -0.5,7.9 l 16.9,35.6 c 5,10.6 4.2,23 -1.9,32.7 L 143.5,311.1 V 202.6 l 17.9,-7 h 112.2 c 5.3,0 9.6,4.3 9.6,9.6 v 0.3 c 0,5.3 -4.3,9.6 -9.6,9.6 h -32.7 c -4.5,0 -8.2,3.7 -8.2,8.2 0,4.5 3.7,8.2 8.2,8.2 h 32.7 21.7 c 5.3,0 9.6,4.3 9.6,9.6 z" />
	</g>
</g><ellipse
         ry="199.56325"
         rx="199.56323"
         cy="281.66354"
         cx="-432.78558"
         id="path5746"
         style="opacity:0.1;fill:#d40000;fill-opacity:1;stroke:#000000;stroke-width:0.87351924;stroke-opacity:1" /></g></g></g></svg>