<?xml version="1.0" encoding="utf-8"?>
<!-- Generator: Adobe Illustrator 18.0.0, SVG Export Plug-In . SVG Version: 6.00 Build 0)  -->
<!DOCTYPE svg PUBLIC "-//W3C//DTD SVG 1.1//EN" "http://www.w3.org/Graphics/SVG/1.1/DTD/svg11.dtd">
<svg version="1.1" id="Capa_1" xmlns="http://www.w3.org/2000/svg" xmlns:xlink="http://www.w3.org/1999/xlink" x="0px" y="0px"
	 viewBox="54.6 131.6 308.4 321" enable-background="new 54.6 131.6 308.4 321" xml:space="preserve">
<g>
	<g>
		<path d="M114.8,200.5c-4.5,0-8.2,3.7-8.2,8.2v0.1c0,4.5,3.7,8.2,8.2,8.2s8.2-3.7,8.2-8.2v-0.1C123,204.2,119.3,200.5,114.8,200.5z
			"/>
	</g>
</g>
<g>
	<g>
		<path d="M321.3,241.1c0-13.5-10.4-24.7-23.6-25.8c1.2-3,1.9-6.3,1.9-9.7v-0.3c0-14.3-11.6-25.9-25.9-25.9H159.8c-1,0-2,0.2-3,0.6
			l-13.4,5.2c-0.2-4.3-3.8-7.8-8.1-7.8H92.9c-4.5,0-8.2,3.7-8.2,8.2V329c0,4.5,3.7,8.2,8.2,8.2h42.4c2.5,0,4.7-1.1,6.2-2.8
			l71.7,86.7c1.5,1.9,3.8,2.9,6.2,3c0,0,0,0,0.1,0c2.4,0,4.6-1,6.2-2.9l3.1-3.6c12.9-15.1,15.7-36.4,7.3-54.3l-11.4-24h48.8
			c14.3,0,25.9-11.6,25.9-25.9v-0.3c0-3.4-0.7-6.7-1.9-9.7c13.2-1.2,23.6-12.3,23.6-25.8V277c0-6.9-2.7-13.1-7.1-17.8
			c4.4-4.6,7.1-10.9,7.1-17.8V241.1z M127.2,313.1c-0.1,0.6-0.1,1.2,0,1.8v6h-26.1V193.6h26.1V313.1z M304.9,241.4
			c0,5.3-4.3,9.6-9.6,9.6h-54.5c-4.5,0-8.2,3.7-8.2,8.2s3.7,8.2,8.2,8.2h54.5c5.3,0,9.6,4.3,9.6,9.6v0.3c0,5.3-4.3,9.6-9.6,9.6
			h-54.5c-4.5,0-8.2,3.7-8.2,8.2c0,4.5,3.7,8.2,8.2,8.2h32.7c5.3,0,9.6,4.3,9.6,9.6v0.3c0,5.3-4.3,9.6-9.6,9.6h-61.7
			c-2.8,0-5.4,1.4-6.9,3.8c-1.5,2.4-1.7,5.3-0.5,7.9l16.9,35.6c5,10.6,4.2,23-1.9,32.7l-75.9-91.7V202.6l17.9-7h112.2
			c5.3,0,9.6,4.3,9.6,9.6v0.3c0,5.3-4.3,9.6-9.6,9.6h-32.7c-4.5,0-8.2,3.7-8.2,8.2s3.7,8.2,8.2,8.2h32.7h21.7c5.3,0,9.6,4.3,9.6,9.6
			V241.4z"/>
	</g>
</g>
</svg>
